<svg xmlns="http://www.w3.org/2000/svg" xmlns:xlink="http://www.w3.org/1999/xlink" viewBox="0 0 1440.01 709"><defs><style>.cls-1{fill:url(#linear-gradient);}.cls-2{fill:#c18e91;}.cls-3{fill:#934f52;}.cls-4{opacity:0.15;}.cls-5{fill:#bf5e4d;}.cls-6{fill:#c96650;}.cls-7{fill:#d36f50;}.cls-8{fill:#e37754;}.cls-9{fill:#d47a6a;}.cls-10{fill:#c76357;}.cls-11{fill:#ad534d;}.cls-12{fill:#904646;}</style><linearGradient id="linear-gradient" x1="720" x2="720" y2="418.2" gradientUnits="userSpaceOnUse"><stop offset="0" stop-color="#231010"/><stop offset="1" stop-color="#537156"/></linearGradient></defs><title>alienbg</title><g id="Layer_2" data-name="Layer 2"><g id="alienbg"><path id="sky" class="cls-1" d="M1.67,317.09c34.14-32.76,127.09-31.7,165.62-12.24l2.12,1.11h0q1.88,1,3.54,2.13c6.37,4.2,16.12,9,27.78,14h0q6-5.36,11.78-10.8c19.15-17.81,37.68-35.73,58.34-48.69C295,247.49,322,239.1,356.3,245.5c28.38,5.29,41.89,18.95,53.4,30.63,16.76,17,29.28,29.85,77.3,6.59a86,86,0,0,1,15-5.62c26.94-7.24,52.68.79,74.61,14.06,39.12,23.66,66.11,64,66.11,64Q681,354.5,720,354.5c59.22,0,117.31,1.1,173.92,3.22h-.09s9.17-36.89,82.5-81.55c2.58-1.57,5.16-3,7.75-4.41,49.8-26.49,102-18.44,138.14-.73A137.1,137.1,0,0,1,1147,286.51a92.66,92.66,0,0,1,11.45,10.69q1.32-3,2.58-6a103.79,103.79,0,0,1,26.43-37.92c29.34-26.69,68.36-31.94,81.56-23.14,5.87,3.91,9.5,14,12.83,24.15,6.88,21,12.43,42,33.67,8.19q1.51-2.42,3-4.71c26.64-41.42,43.75-52.14,100.73-10.94,6.38,4.62,13.26,9.88,20.72,15.83V0H0V418.2l1.34-81.36Z"/><g id="mountains"><path class="cls-2" d="M167.29,304.85C128.76,285.39,35.81,284.33,1.67,317.09l-.33,19.75c21.66,7.33,51,8.67,62.33,0s35.33-13.7,56.66-12.52S169.41,306,169.41,306h0Z"/><path class="cls-2" d="M338.82,272.83c24.85,1.34,52.91,16.61,70.88,3.3-11.51-11.68-25-25.34-53.4-30.63-34.32-6.4-61.33,2-85.45,17.12C291,286.17,314,271.5,338.82,272.83Z"/><path class="cls-3" d="M375.79,367.45a12.8,12.8,0,0,1,7.53-4.09c10.83-2,17.61-1.64,26.69-4.59s35-10.72,42.1-.77a18,18,0,0,1,1.29,2.09c.78.69,1.52,1.33,2.25,1.94,60.47-3.52,123-5.85,187.07-6.9,0,0-27-40.31-66.11-64,0,0-64.61,18.34-74.61-14.06a86,86,0,0,0-15,5.62c-48,23.26-60.54,10.43-77.3-6.59-18,13.31-46-2-70.88-3.3s-47.82,13.34-68-10.21c-20.66,13-39.19,30.88-58.34,48.69,39.34,20.87,137.71,51.48,155,56.79Z"/><path class="cls-4" d="M367.51,368.1c-17.29-5.31-115.66-35.92-155-56.79q-5.83,5.43-11.78,10.8h0c50.9,22,138.09,48.38,138.09,48.38Q353.07,369.25,367.51,368.1Z"/><path class="cls-3" d="M200.73,322.11c-11.66-5-21.41-9.82-27.78-14q-1.66-1.09-3.54-2.13s-27.74,19.54-49.08,18.36S75,328.17,63.67,336.84s-40.67,7.33-62.33,0L0,418.2c71.93-15,152.78-27.72,240.51-37.8Z"/><path class="cls-3" d="M200.73,322.11l39.78,58.29q47.83-5.49,98.31-9.91S251.63,344.08,200.73,322.11Z"/><path class="cls-2" d="M576.61,291.16c-21.93-13.27-47.67-21.3-74.61-14.06C512,309.5,576.6,291.16,576.61,291.16Z"/><path class="cls-3" d="M1018.48,364.15q33.76,2.25,66.58,5c11.52-7.48,40.18-29.77,59-76q1.41-3.42,3-6.65A137.1,137.1,0,0,0,1122.22,271h0s-14.55,7.14-21.22,13.14-51.33-2.67-58-8.67-22-8.67-58.92-3.74c-2.59,1.38-5.17,2.84-7.75,4.41-73.33,44.66-82.5,81.55-82.5,81.55h.09q27.55,1,54.64,2.38C963.62,347.63,1003.06,359.18,1018.48,364.15Z"/><path class="cls-4" d="M1085.06,369.12l12,1H1097s37.3-18.67,61.48-72.93A92.66,92.66,0,0,0,1147,286.51q-1.57,3.23-3,6.65C1125.24,339.35,1096.58,361.64,1085.06,369.12Z"/><path class="cls-3" d="M1383,252.83c-20.67-12.66-40-2.66-64.45,4.9q-1.47,2.29-3,4.71c-21.24,33.81-26.79,12.78-33.67-8.19-8.32,5.22-16.89-2.2-31.77-4.75-15.54-2.67-51.12,16.67-62.62,3.74a103.79,103.79,0,0,0-26.43,37.92q-1.26,3.09-2.58,6h0l-15.21,77.21C1252.83,385.21,1353,400.09,1440,418.2V262.62c-7.46-5.95-14.34-11.21-20.72-15.83C1419.25,246.83,1403.65,265.49,1383,252.83Z"/><path class="cls-3" d="M1097,370.13h.07q23.37,2,46.2,4.27l15.21-77.21h0C1134.31,351.46,1097,370.13,1097,370.13Z"/><path class="cls-2" d="M1043,275.5c6.67,6,51.33,14.67,58,8.67S1122.22,271,1122.22,271h0c-36.16-17.71-88.34-25.76-138.14.73C1021,266.83,1036.33,269.5,1043,275.5Z"/><path class="cls-2" d="M1250.12,249.5c14.88,2.55,23.45,10,31.77,4.75-3.33-10.13-7-20.24-12.83-24.15-13.2-8.8-52.22-3.55-81.56,23.14C1199,266.17,1234.58,246.83,1250.12,249.5Z"/><path class="cls-2" d="M1383,252.83c20.65,12.66,36.25-6,36.28-6-57-41.2-74.09-30.48-100.73,10.94C1343,250.17,1362.33,240.17,1383,252.83Z"/><path class="cls-3" d="M1085.06,369.12l12,1H1097s37.3-18.67,61.48-72.93A92.66,92.66,0,0,0,1147,286.51q-1.57,3.23-3,6.65C1125.24,339.35,1096.58,361.64,1085.06,369.12Z"/><path class="cls-3" d="M367.51,368.1c-17.29-5.31-115.66-35.92-155-56.79q-5.83,5.43-11.78,10.8h0c50.9,22,138.09,48.38,138.09,48.38Q353.07,369.25,367.51,368.1Z"/><path class="cls-4" d="M1085.06,369.12l12,1H1097s37.3-18.67,61.48-72.93A92.66,92.66,0,0,0,1147,286.51q-1.57,3.23-3,6.65C1125.24,339.35,1096.58,361.64,1085.06,369.12Z"/><path class="cls-4" d="M367.51,368.1c-17.29-5.31-115.66-35.92-155-56.79q-5.83,5.43-11.78,10.8h0c50.9,22,138.09,48.38,138.09,48.38Q353.07,369.25,367.51,368.1Z"/></g><path class="cls-5" d="M720,354.5q-39,0-77.28.63c-64.08,1.05-126.6,3.38-187.07,6.9,8.57,7.29,13.11,9.6,19.87,10.41,3.5.42,5.69,1.92,6.2,3.66.57,1.9-.85,4.1-4.78,5.52-6.82,2.48-22,9.06-30,21,84.1-5.06,172.24-7.84,263.08-8a215.54,215.54,0,0,0-24.8-2.24c-10.28-.14-26,1.73-26.15,1.75a7.5,7.5,0,0,1-8.44-6.24,7.25,7.25,0,0,1,6.53-8c.69-.09,16.91-2,28.25-1.86a236.45,236.45,0,0,1,28.26,2.6,7.13,7.13,0,0,1,.87,14H720c59.29,0,117.46,1.11,174.13,3.23-1.46-4.22,2.65-8.51,10.78-9.48,12.79-1.53,21-6.11,38.61-21.55a29.82,29.82,0,0,1,2.25-3.65,14.38,14.38,0,0,1,1.1-1.35,15.33,15.33,0,0,1,1.69-1.63q-27.07-1.35-54.64-2.38C837.31,355.6,779.22,354.5,720,354.5Z"/><path class="cls-5" d="M393.86,401.26c-1.87,0-4.57.86-8.68,2.35-5.14,1.86-29.52,9.62-28.87-2.74.24-3.15,2.5-5.82,5.42-9.14,3.75-4.27,8.6-9.61,11.63-18.42a.14.14,0,0,0,0-.06,9.9,9.9,0,0,1,2.41-5.8l-8.28.65q-14.43,1.15-28.69,2.39-50.43,4.41-98.31,9.91C152.78,390.48,71.93,403.23,0,418.2v13.25c9.59-1.62,19.6-1.65,23.62,4a17.05,17.05,0,0,1,1.28,2.09c8.9,7.8,13.61,10.76,19.63,11.95,107.32-20,231.86-35.33,367.73-44.65-8.27-1.51-16.1-3.09-17.12-3.39A4.57,4.57,0,0,0,393.86,401.26Z"/><path class="cls-5" d="M1440,475.71V418.2c-87-18.11-187.17-33-296.72-43.79q-22.83-2.25-46.2-4.27l-12-1q-32.82-2.72-66.58-5l.8.26a108.31,108.31,0,0,0,19,4.24c8.26,1.16,16.76,1.82,27.56,3.78,10.21,1.86,16.8,8.9,17.36,17.26,0,0,0,.08,0,.11a76.85,76.85,0,0,0,10.41,20.08q65.31,5.56,126.4,13a7.3,7.3,0,0,1,5.13-1.51c.66.06,16.4,1.49,27.07,4,3.63.84,7.44,1.94,11,3.06C1326.65,437,1385.86,447,1440,458.23V475.7Z"/><path class="cls-6" d="M902.43,404.32c-4.8-1.74-7.46-4.14-8.3-6.56-56.67-2.12-114.84-3.23-174.13-3.23h-5.45a7.78,7.78,0,0,1-2.17.28,7.27,7.27,0,0,1-1.13-.09s-.46-.08-1.22-.18c-90.84.19-179,3-263.08,8a31.21,31.21,0,0,0-2.27,4,3.37,3.37,0,0,1-1.57,1.44h0l-.53.21c-2.39.76-6.43.07-12.56-.56-3.85-.39-11-1.59-17.76-2.84-135.87,9.32-260.41,24.66-367.73,44.65.81.16,1.63.29,2.49.39,7.33.88,9,6.46,1.42,9.19S23.07,469.54,16.18,484a3.27,3.27,0,0,1-1.57,1.44,4.71,4.71,0,0,1-.52.21c-2.4.76-6.44.08-12.57-.55L0,484.89v13.37c190.23-39.58,442.82-63.7,720-63.7,80.55,0,159,2,234.48,5.91C940.52,420,914.25,408.6,902.43,404.32Zm-639.94,43.4c-.16,0-16.49,0-28.94,1.93-11.3,1.71-28.13,6.69-28.29,6.74a8.28,8.28,0,0,1-2.39.35,8.37,8.37,0,0,1-2.39-16.4c.74-.22,18.13-5.37,30.57-7.25C244.81,431,261.86,431,262.48,431a8.37,8.37,0,0,1,0,16.74Z"/><path class="cls-6" d="M1263.28,428.39c8,2.53,14.71,5.18,15.11,5.34a7.29,7.29,0,1,1-5.38,13.56,208,208,0,0,0-24-7.76c-9.7-2.25-24.93-3.64-25.08-3.65a8.49,8.49,0,0,1-1-.16,7.29,7.29,0,0,1-2.81-12.86q-61-7.38-126.4-13c9,12.55,18.68,19.23,19.35,28,1.15,21.57-41.43,8-50.4,4.77-7.16-2.59-11.89-4.08-15.16-4.09a7.68,7.68,0,0,0-2.22.27c-1.65.49-13.51,2.9-26.74,5.35,138.21,9.17,264.92,24.55,374,44.72,13.12-.57,30.16,4.59,37.77,7.06.91.3,1.79.56,2.67.81l7.06,1.45v-40C1385.86,447,1326.65,437,1263.28,428.39Z"/><path class="cls-7" d="M1389.46,558a5.68,5.68,0,0,1-.66-.27,4.13,4.13,0,0,1-2-1.8c-8.64-18.09-31-27.81-40.42-31.24s-7.4-10.41,1.78-11.51,15.07-4.38,27.7-15.47a22.5,22.5,0,0,1,1.62-2.62c3-4.12,8.48-5.81,15-6.1-109.08-20.17-235.79-35.55-374-44.72-12.78,2.37-26.84,4.78-34.16,5.54-10.7,1.09-17.75,2.29-21.94,1l-.91-.35v0a5.78,5.78,0,0,1-2.74-2.5,54.48,54.48,0,0,0-4.27-7.38C879,436.6,800.55,434.56,720,434.56c-277.18,0-529.77,24.12-720,63.7v70.06c50.49-10.51,105.37-19.92,163.94-28.09a96.47,96.47,0,0,0,5.21-12.32.58.58,0,0,1,0-.14c.71-10.58,9-19.48,21.94-21.83C215,501.6,230,502.32,250,495.81s77.24-23.66,92.93-1.69a39.7,39.7,0,0,1,2.84,4.61c10.28,9,18,15.1,25,19.23,109.47-8.64,227-13.34,349.23-13.34q69,0,135.74,2a10,10,0,0,1,9.59-10.06c.91,0,22.56-.88,37.51.61,16.47,1.63,36.16,6.59,37,6.8a10,10,0,0,1,6.91,6.21q40.86,2,80.52,4.73c26.76-12.68,77.74.1,106,8.68,113.48,10.88,217.06,26.1,306.76,44.77v-17c-10.53,2.08-27.43,5.18-34.8,5.94C1397.52,558,1392.46,558.9,1389.46,558Z"/><path class="cls-8" d="M1133.24,523.55c4,1.2,7.49,2.33,10.43,3.28,27.66,9,48.33,8,81.33,14,15.67,2.85,26.45,12.7,29.49,25a29.88,29.88,0,0,1,.81,5.18,1.67,1.67,0,0,0,.08.2c16.37,47.66,50.29,62,51.95,84a23.65,23.65,0,0,1-.21,4.91V709H1440V568.32C1350.3,549.65,1246.72,534.43,1133.24,523.55Z"/><path class="cls-8" d="M0,596.81v18.53c11.5-.78,21.45-.75,22.05-.75a10,10,0,0,1,1.41,19.89,9.3,9.3,0,0,1-1.5.11c-.14,0-10.56,0-22,.8V709H131.54V591.14h0a17.49,17.49,0,0,1,0-2.41c.44-5.8,4-10.87,8.86-16.63,6.8-8,16.19-17.34,23.55-31.87C105.37,548.4,50.49,557.81,0,568.32Z"/><path class="cls-8" d="M947.07,516.08a10,10,0,0,1-10.67,7.5,10.93,10.93,0,0,1-1.48-.26c-.19-.05-19.09-4.8-34.06-6.29-13.56-1.35-34.53-.54-34.74-.53a10,10,0,0,1-10.38-9.59c0-.11,0-.22,0-.33q-66.69-1.93-135.74-2c-122.28,0-239.76,4.7-349.23,13.34a56.57,56.57,0,0,0,23.84,8c10.55,1.26,15.74,6.93,13.46,12.4V709H924.31V582l.36.07c.05-6.3,7.07-12.09,19.33-13.55,19.07-2.28,32.31-8.45,54.91-27,3.87-3.17,8-6.7,12.5-10.64a52.54,52.54,0,0,1,3.92-6.37,30.21,30.21,0,0,1,11.93-9.63q-39.63-2.72-80.52-4.73A9.9,9.9,0,0,1,947.07,516.08ZM493.46,649.68a10.59,10.59,0,0,1-1.5.11c-.19,0-19.69-.06-34.57,2.11-13.48,2-33.63,7.82-33.84,7.88A10,10,0,0,1,418,640.57c.88-.25,21.68-6.29,36.54-8.46,16.39-2.39,36.69-2.33,37.55-2.32a10,10,0,0,1,1.41,19.89Z"/><g id="Craters"><g id="c1"><path class="cls-9" d="M13.88,440c3,1.4,1.54,5.91-3.28,8.53C7.72,450.11,3.72,451.14,0,452v6.22c5-1,10-2.05,15-3.06,8.57-3.76,13.91-9.93,9.9-17.66a17.05,17.05,0,0,0-1.28-2.09c-4-5.62-14-5.59-23.62-4v7C4.37,437.91,9.46,438,13.88,440Z"/><path class="cls-3" d="M13.88,440C9.46,438,4.37,437.91,0,438.46V452c3.71-.87,7.71-1.9,10.59-3.47C15.42,445.92,16.84,441.41,13.88,440Z"/><path class="cls-10" d="M15,455.17q14.55-2.91,29.53-5.71c-6-1.19-10.73-4.15-19.63-11.95C28.91,445.24,23.57,451.41,15,455.17Z"/><path class="cls-10" d="M10.82,456.74l-2.3.73-.74.23-1.54.49-.75.23-1.36.43-.86.26-1.22.38-.38.12c13.38,7.34,15,15.17,12.94,25.8A3.27,3.27,0,0,0,16.18,484c6.89-14.43,24.71-22.2,32.26-24.93s5.91-8.31-1.42-9.19c-.86-.1-1.68-.23-2.49-.39q-15,2.81-29.53,5.71A41.16,41.16,0,0,1,10.82,456.74Z"/><path class="cls-11" d="M14.09,485.62a4.71,4.71,0,0,0,.52-.21c2-10.63.44-18.46-12.94-25.8l-.61.19-.46.14-.6.18v24.77l1.52.18C7.65,485.7,11.69,486.38,14.09,485.62Z"/></g><g id="c4"><path class="cls-9" d="M1389.71,500.8c9.46-4.42,21.38-1.44,27,0a188,188,0,0,0,23.26,4.53v-6.91a71.63,71.63,0,0,1-7.06-1.61c-.88-.25-1.76-.51-2.67-.81-7.61-2.47-24.65-7.63-37.77-7.06-6.5.29-12,2-15,6.1a22.5,22.5,0,0,0-1.62,2.62c-5.8,11.19,4,19.78,17.65,24.1l3,.94.24.07,2.61.83.35.1,2.52.79.19.06,2.46.76.55.17.93.29.59.18,1,.29.36.11,1.33.41.18,0,1.15.35.22.07,1.14.34.3.1.84.25.31.09,1,.3.08,0,1,.29h0l.78.23.2.06.67.2.22.07.39.11.24.07,1,.29.1,0,.33.09.22.07,1.88.65.47.16,1.48.5.47.16,1.73.57.13,0c1.3.42,2.58.83,3.85,1.2l.19.06,1.8.52.07,0c1.93.53,3.82,1,5.7,1.37h0c.8.16,1.58.3,2.37.42v-9.47c-9.45-.53-14.76-4.3-23-7.58-5.13-2.05-16.55-3.35-23.23-7C1387.79,508.2,1386,502.56,1389.71,500.8Z"/><path class="cls-3" d="M1389.71,500.8c-3.71,1.76-1.92,7.4,4.11,10.69,6.68,3.63,18.1,4.93,23.23,7,8.19,3.28,13.5,7,23,7.58V505.33a188,188,0,0,1-23.26-4.53C1411.09,499.36,1399.17,496.38,1389.71,500.8Z"/><path class="cls-10" d="M1346.42,524.64c9.45,3.43,31.78,13.15,40.42,31.24a4.13,4.13,0,0,0,2,1.8c-2.51-13.31-.55-23.12,16.21-32.33l-.13,0-2.46-.76-.19-.06-2.52-.79-.35-.1-2.61-.83-.24-.07-3-.94c-13.62-4.32-23.45-12.91-17.65-24.1-12.63,11.09-18.52,14.37-27.7,15.47S1337,521.21,1346.42,524.64Z"/><path class="cls-11" d="M1437.63,535.1c-1.88-.37-3.77-.84-5.7-1.37l-.07,0-1.8-.52-.19-.06c-1.27-.37-2.55-.78-3.85-1.2l-.13,0-1.73-.57-.47-.16-1.48-.5-.47-.16-1.88-.65-.22-.07-.33-.09-.1,0-1-.29-.24-.07-.39-.11-.22-.07-.67-.2-.2-.06-.78-.23h0l-1-.29-.08,0-1-.3-.31-.09-.84-.25-.3-.1-1.14-.34-.22-.07-1.15-.35-.18,0-1.33-.41-.36-.11-1-.29-.59-.18-.93-.29-.42-.13c-16.76,9.21-18.72,19-16.21,32.33a5.68,5.68,0,0,0,.66.27c3,.95,8.06.09,15.74-.7,7.37-.76,24.27-3.86,34.8-5.94V535.53c-.78-.12-1.57-.27-2.37-.43Z"/></g><g id="c3"><path class="cls-9" d="M1083.22,389.69c-.56-8.36-7.15-15.4-17.36-17.26-10.8-2-19.3-2.62-27.56-3.78a108.31,108.31,0,0,1-19-4.24l-.8-.26c-15.42-5-54.86-16.52-69.92-4a15.33,15.33,0,0,0-1.69,1.63,14.38,14.38,0,0,0-1.1,1.35,29.82,29.82,0,0,0-2.25,3.65c-8.08,15.59,5.61,27.55,24.59,33.58l3.22,1,.93.3.24.08,3.77,1.18.36.11,3.6,1.13.22.06,3.6,1.12.12,0,2,.6.48.15,1.69.52.26.08,1.8.55.5.15,1.43.43.32.1,1.56.47.5.15,1.15.35.37.12,1.12.33.61.19,1,.3.2.06c.8.25,1.52.46,2.17.65l.39.12,1.48.44.31.09.24.07.28.09.07,0,.43.12.13,0,.13,0,2.6.9.69.23,2.05.7.65.22,2.43.8.16.05c1.81.59,3.6,1.16,5.37,1.68l.26.08c.85.25,1.68.49,2.52.72l.09,0c2.68.74,5.33,1.39,7.94,1.91h0a61,61,0,0,0,17.92,1.17c1.39-.14,2.78-.34,4.16-.6l.1,0,1.3-.27.27-.07c.85-.19,1.71-.41,2.56-.66l.07,0,1-.33.67-.22,1-.34,1-.38,1.16-.46,1.08-.47.72-.34q.59-.27,1.17-.57l.55-.27c.56-.29,1.12-.6,1.68-.92l.49-.28c.44-.26.89-.52,1.34-.8l.51-.32c.59-.37,1.18-.76,1.77-1.16a41,41,0,0,0,4.21-3.29C1080.92,402.34,1083.62,395.68,1083.22,389.69Zm-42.13,16.49a52.13,52.13,0,0,1-19.31-1.77c-7.19-2.11-13.11-5.56-20.93-8.69-7.14-2.85-23.06-4.67-32.36-9.73-8.41-4.59-10.9-12.45-5.73-14.9,13.18-6.15,29.79-2,37.66,0,29.79,7.74,44.11,6.45,58.28,10.74,13.6,4.13,2.15,21.42-15.36,24.08C1042.6,406,1041.85,406.12,1041.09,406.18Z"/><path class="cls-3" d="M1058.7,381.83c-14.17-4.29-28.49-3-58.28-10.74-7.87-2-24.48-6.15-37.66,0-5.17,2.45-2.68,10.31,5.73,14.9,9.3,5.06,25.22,6.88,32.36,9.73,7.82,3.13,13.74,6.58,20.93,8.69a52.13,52.13,0,0,0,19.31,1.77c.76-.06,1.51-.16,2.25-.27C1060.85,403.25,1072.3,386,1058.7,381.83Z"/><path class="cls-10" d="M984.08,405.31h0l-3.6-1.12-.22-.06-3.6-1.13-.36-.11-3.77-1.18-.24-.08-.94-.3-3.21-1c-19-6-32.67-18-24.59-33.58-17.61,15.44-25.82,20-38.61,21.55-8.13,1-12.24,5.26-10.78,9.48.84,2.42,3.5,4.82,8.3,6.56,11.82,4.28,38.09,15.64,52.05,36.15a54.48,54.48,0,0,1,4.27,7.38,5.78,5.78,0,0,0,2.74,2.5,69,69,0,0,1-1.2-9.59C959.66,426.9,964.94,415.82,984.08,405.31Z"/><path class="cls-12" d="M1113,437.92c-.67-8.81-10.37-15.49-19.35-28a76.85,76.85,0,0,1-10.41-20.08s0-.07,0-.11c.4,6-2.3,12.65-9,18.59a41,41,0,0,1-4.21,3.29c-.59.4-1.18.79-1.77,1.16l-.51.32c-.45.28-.9.54-1.34.8l-.49.28c-.56.32-1.12.63-1.68.92l-.55.27q-.59.3-1.17.57l-.72.34-1.08.47-1.16.46-1,.38-1,.34-.67.22-1,.33-.07,0c-.85.25-1.71.47-2.56.66l-.27.07-1.3.27-.1,0c-1.38.26-2.77.46-4.16.6h0c4.45,7.91,4.32,12.89,0,18.51h0c3.27,0,8,1.5,15.16,4.09C1071.59,445.94,1114.17,459.49,1113,437.92Z"/><path class="cls-11" d="M1047.47,420.08h0a61,61,0,0,1-17.92-1.17h0c-2.61-.52-5.26-1.17-7.94-1.91l-.09,0c-.84-.23-1.67-.47-2.52-.72l-.26-.08q-2.65-.78-5.37-1.68l-.16-.05-2.43-.8-.65-.22-2.05-.7-.69-.23-2.6-.9-.13,0-.13,0-.43-.12-.07,0-.28-.09-.24-.07-.31-.09-1.48-.44-.39-.12-2.17-.65-.2-.06-1-.3-.61-.19-1.12-.33-.37-.12-1.15-.35-.5-.15-1.56-.47-.32-.1-1.43-.43-.5-.15-1.8-.55-.26-.08-1.69-.52-.48-.15-2-.6-.09,0c-19.14,10.51-24.42,21.59-23.79,35.45a69,69,0,0,0,1.2,9.59,6.66,6.66,0,0,0,.91.37c4.19,1.33,11.24.13,21.94-1,7.32-.76,21.38-3.17,34.16-5.54,13.23-2.45,25.09-4.86,26.74-5.35a7.68,7.68,0,0,1,2.22-.27h0C1051.79,433,1051.92,428,1047.47,420.08Z"/></g><g id="c2"><path class="cls-9" d="M454.24,362.11a12.58,12.58,0,0,0-.84-2,18,18,0,0,0-1.29-2.09c-7.11-9.95-33-2.18-42.1.77s-15.86,2.62-26.69,4.59a12.8,12.8,0,0,0-7.53,4.09,9.9,9.9,0,0,0-2.41,5.8c-.27,4.08,2,8.71,7.54,12.53.49.33,1,.64,1.46.94l.38.23,1.28.72.18.09c.49.26,1,.5,1.48.72l.23.1h0c.45.19.91.38,1.36.54l.15.06c.52.19,1,.36,1.56.52h0c.52.15,1,.29,1.56.41h.07a27.49,27.49,0,0,0,3.21.52,34.78,34.78,0,0,0,10.26-.67h0c1.49-.3,3-.68,4.54-1.1l.06,0,1.43-.41.16-.05c1-.3,2-.62,3.07-1l.09,0,1.4-.46.37-.12,1.18-.4.38-.13,1.5-.52.15,0,.76-.23.09,0,.58-.18.1,0,.83-.25h0l.88-.26.42-.13.65-.19.43-.13,2.48-.75.43-.13.52-.17.65-.19.31-.1,1.5-.46.44-.13,1-.32,1.2-.37.84-.26,1.32-.42.84-.26,1.51-.47.72-.23,2.32-.73C449.35,376.14,456.8,370.06,454.24,362.11Zm-15.14,9c-5.33,2.9-14.45,3.94-18.54,5.57-7.79,3.12-12.3,6.81-23.05,6s-18.2-11.48-10.08-13.94c6.27-1.9,12.61-1.9,23-3.85,3.06-.57,6.46-1.3,10.34-2.3,4.51-1.15,14-3.53,21.57,0a2.91,2.91,0,0,1,.35.2C445.2,364.39,443.71,368.62,439.1,371.13Z"/><path class="cls-3" d="M442.73,362.8a2.91,2.91,0,0,0-.35-.2c-7.55-3.53-17.06-1.15-21.57,0-3.88,1-7.28,1.73-10.34,2.3-10.43,2-16.77,2-23,3.85-8.12,2.46-.66,13.12,10.08,13.94s15.26-2.87,23.05-6c4.09-1.63,13.21-2.67,18.54-5.57C443.71,368.62,445.2,364.39,442.73,362.8Z"/><path class="cls-10" d="M481.72,376.1c-.51-1.74-2.7-3.24-6.2-3.66-6.76-.81-11.3-3.12-19.87-10.41-.73-.61-1.47-1.25-2.25-1.94a12.58,12.58,0,0,1,.84,2c2.56,7.95-4.89,14-14.92,17.22l-2.32.73-.72.23-1.51.47-.84.26-1.32.42-.84.26-1.2.37-.4.12.89.51c10.35,5.94,13.15,12.22,12.72,20.07a40.72,40.72,0,0,1-.67,5.23,3.37,3.37,0,0,0,1.57-1.44,31.21,31.21,0,0,1,2.27-4c7.95-11.9,23.17-18.48,30-21C480.87,380.2,482.29,378,481.72,376.1Z"/><path class="cls-12" d="M393.86,390.65h0a27.49,27.49,0,0,1-3.21-.52h-.07c-.52-.12-1-.26-1.56-.41h0c-.52-.16-1-.33-1.56-.52l-.15-.06c-.45-.16-.91-.35-1.36-.54h0l-.23-.1c-.49-.22-1-.46-1.48-.72l-.18-.09-1.28-.72-.38-.23c-.49-.3-1-.61-1.46-.94-5.58-3.82-7.81-8.45-7.54-12.53a.14.14,0,0,1,0,.06c-3,8.81-7.88,14.15-11.63,18.42-2.92,3.32-5.18,6-5.42,9.14-.65,12.36,23.73,4.6,28.87,2.74,4.11-1.49,6.81-2.34,8.68-2.35h0C391.39,398,391.31,395.19,393.86,390.65Z"/><path class="cls-11" d="M431.06,382.7l-.89-.51-.63.2-.44.13-1.5.46-.31.1-.64.19-.53.17-.43.13-2.48.75-.43.13-.65.19-.42.13-.88.26h0l-.83.25-.1,0-.58.18-.09,0-.76.23-.15,0-1.5.52-.38.13-1.18.4-.37.12-1.4.46-.09,0c-1,.34-2.06.66-3.07,1l-.16.05-1.43.41-.06,0c-1.53.43-3.05.8-4.54,1.1h0a34.78,34.78,0,0,1-10.26.67h0c-2.55,4.54-2.47,7.39,0,10.61h0a4.57,4.57,0,0,1,1.28.16c1,.3,8.85,1.88,17.12,3.39,6.8,1.25,13.91,2.45,17.76,2.84,6.13.63,10.17,1.32,12.56.56.19-.06.36-.14.53-.21a40.72,40.72,0,0,0,.67-5.23C444.21,394.92,441.41,388.64,431.06,382.7Z"/></g></g><g id="spots"><path class="cls-12" d="M1252.27,425.33c-10.67-2.49-26.41-3.92-27.07-4a7.3,7.3,0,0,0-5.13,1.51q21.92,2.65,43.21,5.53C1259.71,427.27,1255.9,426.17,1252.27,425.33Z"/><path class="cls-12" d="M1217.28,428a7.3,7.3,0,0,0,5.6,7.76,8.49,8.49,0,0,0,1,.16c.15,0,15.38,1.4,25.08,3.65a208,208,0,0,1,24,7.76,7.29,7.29,0,1,0,5.38-13.56c-.4-.16-7.12-2.81-15.11-5.34q-21.3-2.86-43.21-5.53A7.27,7.27,0,0,0,1217.28,428Z"/><path class="cls-12" d="M939.83,503.93c-.83-.21-20.52-5.17-37-6.8-15-1.49-36.6-.65-37.51-.61a10,10,0,0,0-9.59,10.06q46.14,1.34,91,3.56A10,10,0,0,0,939.83,503.93Z"/><path class="cls-12" d="M866.12,516.5c.21,0,21.18-.82,34.74.53,15,1.49,33.87,6.24,34.06,6.29a10.93,10.93,0,0,0,1.48.26,10,10,0,0,0,10.67-7.5,9.9,9.9,0,0,0-.33-5.94q-44.84-2.22-91-3.56c0,.11,0,.22,0,.33A10,10,0,0,0,866.12,516.5Z"/><path class="cls-12" d="M262.48,431c-.62,0-17.67,0-31.43,2.11-12.44,1.88-29.83,7-30.57,7.25a8.37,8.37,0,0,0,2.39,16.4,8.28,8.28,0,0,0,2.39-.35c.16-.05,17-5,28.29-6.74,12.45-1.88,28.78-1.93,28.94-1.93a8.37,8.37,0,0,0,0-16.74Z"/><path class="cls-12" d="M492.05,629.79c-.86,0-21.16-.07-37.55,2.32-14.86,2.17-35.66,8.21-36.54,8.46a10,10,0,0,0,5.59,19.21c.21-.06,20.36-5.91,33.84-7.88,14.88-2.17,34.38-2.11,34.57-2.11a10.59,10.59,0,0,0,1.5-.11,10,10,0,0,0-1.41-19.89Z"/><path class="cls-12" d="M22,634.59a9.3,9.3,0,0,0,1.5-.11,10,10,0,0,0-1.41-19.89c-.6,0-10.55,0-22,.75v20C11.4,634.56,21.82,634.59,22,634.59Z"/><path class="cls-12" d="M719.91,388.79a7.25,7.25,0,0,0-6.23-8.26,236.45,236.45,0,0,0-28.26-2.6c-11.34-.15-27.56,1.77-28.25,1.86a7.25,7.25,0,0,0-6.53,8,7.5,7.5,0,0,0,8.44,6.24c.15,0,15.87-1.89,26.15-1.75a215.54,215.54,0,0,1,24.8,2.24h4.52A7.28,7.28,0,0,0,719.91,388.79Z"/></g></g></g></svg>