<svg xmlns="http://www.w3.org/2000/svg" viewBox="0 0 147.81 178.24"><defs><style>.cls-1{fill:#4ca566;}.cls-2{fill:#fff;}.cls-3{fill:#367245;}.cls-4{fill:#ba374a;}</style></defs><title>alien1</title><g id="Layer_2" data-name="Layer 2"><g id="Alien_1" data-name="Alien 1"><path class="cls-1" d="M142.18,140.44c10.31,1.12,5.31-37.68-5.83-53.05C131,53.19,120.93,28.6,99.05,25.53c-2.66-10.76,0-13.06,0-13.06,9.25,1.54,11.5-14.22,0-12.3s-8.81,25-8.81,25C83.33,23.6,68,22.84,61.81,24.37,60.66,11.31,58.74.22,50.28,0s-6.92,11.31,2.31,13.23a48.71,48.71,0,0,1,.77,11.53C37.6,25.14,21.08,40.63,13.4,89-2,108.14-3.89,138.87,6.48,140.8s2.69-21.52,4.61-28.43C15.7,130,25.31,143.87,37.6,146.56a80,80,0,0,1,4.61,21.13c-5.76,1.15-7.3,9.41-.38,10.28s8.45-.29,9.61-4.51-3.84-16.52-1.15-26.51c13.83,1.92,36.89,2.69,50.33,0,0,11.53-6.92,27.66,0,29.59s12.68,1.92,13.45,0-1.15-6.92-3.84-7.3c-1.54-8.45,1.54-22.29,1.54-22.29,12.68-1.92,21.9-16.52,23.82-31.89C135.58,115.05,135.66,139.73,142.18,140.44Z"/><path class="cls-2" d="M87.46,114.76c.86,9.51,2,15.85,11,14.12s11-2.7,7.49-18.5Z"/><path class="cls-3" d="M75.54,117.25c-16,0-31-3.57-40.33-9.48a2.31,2.31,0,0,1,2.48-3.89c16.48,10.49,53.17,12.67,77.62-.1a2.31,2.31,0,0,1,2.13,4.09C104.92,114.41,89.83,117.25,75.54,117.25Z"/><circle class="cls-2" cx="76.41" cy="65.77" r="24.59"/><circle class="cls-4" cx="76.41" cy="65.77" r="17.21"/><circle cx="76.41" cy="65.77" r="9.84"/></g></g></svg>