<svg xmlns="http://www.w3.org/2000/svg" viewBox="0 0 191.78 177.95"><defs><style>.cls-1{fill:#4ca566;}.cls-2{fill:#fff;}.cls-3{fill:#367245;}.cls-4{fill:#ba374a;}</style></defs><title>alien2</title><g id="Layer_2" data-name="Layer 2"><g id="Alien_2" data-name="Alien 2"><path class="cls-1" d="M30.94,86.38C38.09,50.92,46.1,26.32,72.7,24.89c0-8-8-24.31,0-24.88s7.44,24.88,7.44,24.88a89.64,89.64,0,0,1,19.45-.29c0-11.73.86-24.61,6.58-24.61s2,13.17,3.43,25.46c8.58,0,37.47.57,43.76,64.35,15.16-3.43,19.45-9.72,19.45-9.72-3.43-7.44,9.72-22.59,18.3-6.29,3.43,6.58-5.72,11.73-35.75,29.74-.57,26-10,41.18-26.6,46a72.57,72.57,0,0,0-.86,20c5.72,0,6,8.58,3.43,8.29S115,179,115,173.61s3.15-18.59,2.86-23.45c-10-.57-42.9-.29-50,.29,0,9.15-1,10.82-.57,21.74.29,4.86-8,6-13.73,5.73s-2.86-7.73,2.29-7.44c2.29-5.72,1.43-16.87,0-20.31-12.58-1.43-28.11-14.74-24.88-46.62-16.3-5.72-36-22.59-29.74-32.89s18.3-.86,16,9.44C20.65,85.81,30.94,86.38,30.94,86.38Z"/><path class="cls-2" d="M71.72,53.22a25.16,25.16,0,1,0,41.61.27c-5.19.43-11.31.63-17.62.63C87.37,54.12,78.76,53.78,71.72,53.22Z"/><path class="cls-2" d="M107,115.22c-1.16,12.91-.88,15.77,6.27,16.06s9.83.13,10.92-14.81A108.44,108.44,0,0,0,107,115.22Z"/><path class="cls-3" d="M132.47,120.13a2.33,2.33,0,0,1-.48,0c-19.65-4.15-52.21-2.9-74.16,0a2.29,2.29,0,0,1-.6-4.54c23.06-3.08,55.42-4.26,75.71,0a2.29,2.29,0,0,1-.47,4.53Z"/><circle class="cls-4" cx="92.43" cy="67.5" r="16.36"/><circle cx="92.43" cy="67.5" r="10.07"/><path class="cls-3" d="M125.24,49.18a2.28,2.28,0,0,0-2.8-1.62,70.62,70.62,0,0,1-12.79,1.62,302.33,302.33,0,0,1-34.13-.28c-5.39-.35-10.08-.83-13.3-1.39A2.29,2.29,0,1,0,61.44,52c2.65.46,6.21.86,10.28,1.19,7,.57,15.65.9,24,.9,6.31,0,12.43-.2,17.62-.63A62.65,62.65,0,0,0,123.63,52,2.29,2.29,0,0,0,125.24,49.18Z"/></g></g></svg>