<svg xmlns="http://www.w3.org/2000/svg" viewBox="0 0 157.66 177.99"><defs><style>.cls-1{fill:#4ca566;}.cls-2{fill:#fff;}.cls-3{fill:#ba374a;}.cls-4{fill:#e14666;}</style></defs><title>alien3</title><g id="Layer_2" data-name="Layer 2"><g id="Alien_3" data-name="Alien 3"><path class="cls-1" d="M101.48,26.6c10.27.57,27.68,11.13,31.39,41.67C142.87,66,146,53.43,146,53.43c-7.42-3.42-5.14-23.12,10-11.7,5.14,4.28-1.71,25.12-19.41,41.38,5.14,33.68,4.57,60.51-23.4,65.93A54.49,54.49,0,0,0,112,168.44c6,.86,5.14,9.13,1.71,9.42s-11.42.57-12.27-4.85,2.85-12.84,2.57-22.83c-12.27,1.14-42.24,1.14-51.09,0,0,10,2,16.27,1.71,22.83s-13.41,3.42-13.41,3.42c-3.71-1.71-3.14-8,3.14-6.85,1.14-5.42-1.43-21.12-1.43-21.12C19.29,142.19,12.72,131.06,16.43,86,4.73,72-1.83,62.27.45,46c2-11.42,24.83-4,10.85,11.7.29,8.85,7.42,15.13,7.42,15.13,5.71-24,18.84-47.42,37.67-46.28,0-10.81-2.85-13.37-2.85-13.37C45.83,12.33,44.4-6.22,59,2.34,64.67,6,65.52,26,65.52,26c6-1.14,21.69-1.43,26.26-.29C92.35,14.33,94.92-1.31,102.91.09s8.34,13.2-.86,14.24C98.91,20,101.48,26.6,101.48,26.6Z"/><circle class="cls-2" cx="77.5" cy="66.69" r="27.53"/><circle class="cls-3" cx="77.5" cy="66.69" r="19.27"/><circle cx="77.5" cy="66.69" r="11.01"/><path class="cls-4" d="M113.1,102.44h0c-2.08,11.92-3.82,15.48-11.62,14.72s-9.89-5.33-7.81-13.8h0c-21.42.46-47.65-.3-55.38-1.79,0,21.5,15.22,36.34,40.91,36.34,23,0,40.91-17.31,40.91-36.34C118.32,101.91,115.91,102.2,113.1,102.44Z"/><path class="cls-2" d="M101.48,117.17c7.8.76,9.54-2.8,11.62-14.72h0c-5.27.46-12.06.76-19.41.91h0C91.59,111.84,93.68,116.4,101.48,117.17Z"/></g></g></svg>