<svg xmlns="http://www.w3.org/2000/svg" viewBox="0 0 112.08 24.76"><defs><style>.cls-1{fill:#999;}</style></defs><title>armt</title><g id="Layer_2" data-name="Layer 2"><g id="Background"><g id="Tower"><path class="cls-1" d="M112.08,0H0V24.76H112.08ZM19.64,3l-7.26,7.26L5.12,3ZM3,5.12l7.26,7.26L3,19.64ZM5.12,21.76l7.26-7.26,7.26,7.26Zm16.64-2.12L14.5,12.38l7.26-7.26ZM41.81,3l-7.26,7.26L27.29,3ZM25.16,5.12l7.26,7.26-7.26,7.26Zm2.12,16.64,7.26-7.26,7.26,7.26Zm16.48-2.28-7.1-7.1,7.1-7.1ZM63.41,3l-7.26,7.26L48.89,3ZM46.93,5.28l7.1,7.1-7.1,7.1Zm2,16.48,7.26-7.26,7.26,7.26Zm16.64-2.12-7.26-7.26,7.26-7.26ZM85.19,3l-7.26,7.26L70.67,3ZM68.55,5.12l7.26,7.26-7.26,7.26Zm2.12,16.64,7.26-7.26,7.26,7.26Zm16.64-2.12-7.26-7.26,7.26-7.26ZM107,3,99.7,10.26,92.44,3ZM90.32,5.12l7.26,7.26-7.26,7.26Zm2.12,16.64L99.7,14.5,107,21.76Zm16.64-2.12-7.26-7.26,7.26-7.26Z"/></g></g></g></svg>