<svg xmlns="http://www.w3.org/2000/svg" viewBox="0 0 106.02 78.56"><defs><style>.cls-1{fill:#d8dbdb;}.cls-2{fill:#7e8788;}.cls-3{fill:#a5abac;}</style></defs><title>asteroid</title><g id="Layer_2" data-name="Layer 2"><g id="Asteroid"><path class="cls-1" d="M40.67,61.76c9.74-10,20.17-.85,28.13-11.21s.41-15.7,13.25-26.3S98.64,20.89,99.73,4.74C87.5-10,66.14,13.21,49,26.9c-2.35,2-5.19,2.44-8.36,2.51h0c-4.49,5-8.77,2.18-19,13.19S4.58,52.38.71,49.94c-1.46,4.51-.87,9.73,3.67,15.49a40.37,40.37,0,0,0,3,3.36C13.77,65.23,30.93,71.74,40.67,61.76Z"/><path class="cls-2" d="M21.71,42.6c10.19-11,14.48-8.16,19-13.19h0C34.9,29.52,28,28.24,20.9,31.79c0,0-16.53,6.87-20.18,18.15C4.58,52.38,11.52,53.6,21.71,42.6Z"/><path class="cls-2" d="M29.26,49.53c-5.13,1-1.83,8.77,3.06,7.75S35.58,48.3,29.26,49.53Z"/><path class="cls-2" d="M51.27,46.06c-1.84.18-1.43,7.92.61,7.32S57.59,45.45,51.27,46.06Z"/><path class="cls-2" d="M59.43,29.14C57.7,35.06,63.51,40.76,68,36.28s6.32-7.14,1.43-8.36S60.31,26.15,59.43,29.14Z"/><path class="cls-3" d="M49.85,70.93c7.34-3.26,22.83-13,25.08-17.13S71.46,41.17,83.69,32.2s5.76-1,22.24-11.43a31.35,31.35,0,0,0-3.69-12.22,22.12,22.12,0,0,0-2.51-3.81c-1.09,16.16-4.83,8.91-17.67,19.51s-5.29,15.94-13.25,26.3S50.42,51.78,40.67,61.76s-26.91,3.47-33.33,7a31.75,31.75,0,0,0,21.09,9.68C31.92,70.74,42.51,74.19,49.85,70.93Z"/><path class="cls-2" d="M71.05,65.43C92.4,53.52,107.3,38,105.94,20.77c-16.49,10.38-10,2.46-22.24,11.43s-6.52,17.53-8.77,21.61S57.19,67.67,49.85,70.93s-17.92-.2-21.41,7.53C41.15,79.36,55.79,73.95,71.05,65.43Z"/></g></g></svg>