<svg xmlns="http://www.w3.org/2000/svg" viewBox="0 0 210.51 265.81"><defs><style>.cls-1{fill:#e5f1f6;}.cls-2{fill:#f5fcfe;}.cls-3{fill:#4b8c9f;}.cls-4{fill:#7bafbd;}.cls-5{fill:#bfd7db;}.cls-6{fill:#84afb7;}.cls-7{fill:#f2a886;}.cls-8{fill:#f6cfbc;}.cls-9{opacity:0.1;}</style></defs><title>astronaut</title><g id="Layer_2" data-name="Layer 2"><g id="Astronaut"><path class="cls-1" d="M152.91,40a49.3,49.3,0,0,0-96.82,0C76.27,16.06,129.74,15.06,152.91,40Z"/><path class="cls-2" d="M152.91,40c-23.17-24.91-76.65-23.91-96.82,0a49.31,49.31,0,1,0,96.82,0Z"/><path class="cls-3" d="M143.23,44a39.45,39.45,0,0,0-9.09-7.15L90.21,80.79a113,113,0,0,0,14.29.77c1.92,0,3.89,0,5.87-.07l33.42-33.42A40.13,40.13,0,0,0,143.23,44Z"/><path class="cls-3" d="M120.89,31.48l-45,45a25.76,25.76,0,0,0,5,2.29l45.51-45.51A57.86,57.86,0,0,0,120.89,31.48Z"/><path class="cls-3" d="M65.77,44a39.62,39.62,0,0,0-.72,7.47A42.71,42.71,0,0,0,66.8,64.36l35-35C87.38,29.89,73.51,34.83,65.77,44Z"/><path class="cls-3" d="M116.32,81.19c7.18-.54,14-1.85,18.62-4.93,6.69-4.48,8.74-12.7,9-22.66Z"/><path class="cls-4" d="M101.76,29.41l-35,35a21,21,0,0,0,8.77,11.89l.35.2,45-45A67.3,67.3,0,0,0,101.76,29.41Z"/><path class="cls-4" d="M126.44,33.24,80.94,78.74a48.06,48.06,0,0,0,9.27,2l43.93-43.93A49.94,49.94,0,0,0,126.44,33.24Z"/><path class="cls-4" d="M143.95,51.47c0-1.15-.06-2.28-.16-3.41L110.37,81.49c2-.05,4-.15,6-.3l27.6-27.6Q143.95,52.54,143.95,51.47Z"/><path class="cls-2" d="M27.33,112,6.07,127.76a15,15,0,1,0,17.86,24.1l21.15-15.67C44,135,38.16,128.7,36.21,126,33.94,123,28.27,113.56,27.33,112Z"/><path class="cls-2" d="M204.44,127.76l-20.36-15.09c-1.61,2.66-6.44,10.59-8.48,13.37s-8.78,10.05-9.07,10.35l-.34.36,20.39,15.11a15,15,0,0,0,17.86-24.1Z"/><path class="cls-1" d="M40.24,123.08C38,120,31.55,109.33,31.49,109.22l-.12-.21-4,3c.94,1.56,6.62,10.95,8.88,14,2,2.66,7.75,8.94,8.87,10.15l4-3-.19-.21C48.87,132.91,42.19,125.73,40.24,123.08Z"/><path class="cls-1" d="M175.59,126c2-2.78,6.87-10.71,8.48-13.37l-4-3c-1.25,2.07-6.46,10.66-8.48,13.4s-8.63,9.83-8.7,9.91l-.72.77,4,3,.34-.36C166.81,136.09,173.47,128.92,175.59,126Z"/><path class="cls-2" d="M111.5,222.2v43.61h32.7V222c-1.92.35-12.67,2.27-16.8,2.27C123.71,224.31,114.75,222.77,111.5,222.2Z"/><path class="cls-2" d="M66.8,222.11v43.69H99.5V222.11c-2.77.5-12.48,2.19-16.35,2.19S69.57,222.61,66.8,222.11Z"/><path class="cls-1" d="M83.15,217.31c-3.09,0-12.4-1.58-15.72-2.19L66.8,215v7.12c2.77.5,12.48,2.19,16.35,2.19s13.58-1.69,16.35-2.19V215l-.63.12C95.55,215.72,86.24,217.31,83.15,217.31Z"/><path class="cls-1" d="M127.4,217.31c-3.09,0-12.4-1.58-15.72-2.19l-.18,0v7.11c3.25.58,12.21,2.11,15.9,2.11,4.13,0,14.88-1.92,16.8-2.27v-7.12l-1.08.2C139.8,215.72,130.49,217.31,127.4,217.31Z"/><path class="cls-2" d="M147,85.21c-12.6,25.17-72.25,25.12-83.53,0L31.36,109l.12.21c.06.11,6.47,10.75,8.75,13.86,2,2.66,8.63,9.83,8.7,9.91l.19.21,1.47-1.09c2.41-1.79,7.9,1,7.9,5.46v37c.25,6.75,8.3,13.25,8.3,13.25V215l.63.12c3.32.61,12.63,2.19,15.72,2.19s12.4-1.58,15.72-2.19l.63-.12V191.06h12v24l.18,0c3.32.61,12.63,2.19,15.72,2.19s12.4-1.58,15.72-2.19l1.08-.2V187.81s8-6.5,8.3-13.25v-37c0-3.89,4.09-6.45,6.76-5.94l2.88,2.13.72-.77c.07-.07,6.74-7.25,8.7-9.91s7.23-11.33,8.48-13.4Z"/><path class="cls-1" d="M147,85.21l-5.11-3.79a49.28,49.28,0,0,1-74.22.68l-4.2,3.11C74.77,110.32,134.41,110.37,147,85.21Z"/><path class="cls-5" d="M83.15,244.83A16.35,16.35,0,0,0,66.8,261.18H99.5A16.35,16.35,0,0,0,83.15,244.83Z"/><polygon class="cls-6" points="66.8 261.18 66.8 265.81 67.47 265.81 98.83 265.81 99.5 265.81 99.5 261.18 66.8 261.18"/><path class="cls-5" d="M127.85,244.83a16.35,16.35,0,0,0-16.35,16.35h32.7A16.35,16.35,0,0,0,127.85,244.83Z"/><polygon class="cls-6" points="111.5 261.18 111.5 265.81 112.18 265.81 143.53 265.81 144.2 265.81 144.2 261.18 111.5 261.18"/><rect class="cls-7" x="76.37" y="121.2" width="57.77" height="31.11" rx="12" ry="12"/><circle class="cls-8" cx="92.67" cy="136.75" r="9"/><circle class="cls-8" cx="117.95" cy="136.75" r="9"/><path class="cls-9" d="M204.44,127.76l-20.36-15.09-4-3L147,85.21l-5.11-3.79A49.3,49.3,0,0,0,104.5,0V191.06h7v74.75h32.7v-78s8-6.5,8.3-13.25v-37c0-3.89,4.09-6.45,6.76-5.94l2.88,2.13,4,3,20.39,15.11a15,15,0,0,0,17.86-24.1Z"/></g></g></svg>