<svg xmlns="http://www.w3.org/2000/svg" xmlns:xlink="http://www.w3.org/1999/xlink" viewBox="0 0 8739.57 4303.02"><defs><style>.cls-1,.cls-20{fill:none;}.cls-14,.cls-2{fill:#fff;}.cls-3{fill:url(#linear-gradient);}.cls-4{fill:url(#New_Pattern);}.cls-5{fill:#fdab67;}.cls-6{opacity:0.2;}.cls-14,.cls-7{opacity:0.35;}.cls-8{fill:#029fc7;}.cls-9{fill:#00aa9d;}.cls-10{fill:#e5c659;}.cls-11{fill:#e35285;}.cls-12{fill:#999;}.cls-13{fill:#967594;}.cls-15{fill:#1a9cba;}.cls-16{fill:#f6d66b;}.cls-17{fill:#e38102;}.cls-18{fill:#e08a08;}.cls-19{fill:#c05002;}.cls-20{stroke:#999;stroke-width:5.5px;}.cls-21{fill:#1f9abf;}.cls-22{fill:#d9d9d9;}.cls-23{fill:#bc6868;}</style><linearGradient id="linear-gradient" x1="4369.79" x2="4369.79" y2="4303.02" gradientUnits="userSpaceOnUse"><stop offset="0" stop-color="#111926"/><stop offset="0.66" stop-color="#111926"/><stop offset="1" stop-color="#706872"/></linearGradient><pattern id="New_Pattern" data-name="New Pattern" width="1249.44" height="727.98" patternUnits="userSpaceOnUse" viewBox="0 0 1249.44 727.98"><rect class="cls-1" width="1249.44" height="727.98"/><circle class="cls-2" cx="221.99" cy="416" r="6"/><circle class="cls-2" cx="574.39" cy="513.61" r="6"/><circle class="cls-2" cx="889.92" cy="546.61" r="6"/><circle class="cls-2" cx="465.39" cy="203.61" r="6"/><circle class="cls-2" cx="889.92" cy="223.25" r="6"/><circle class="cls-2" cx="699.39" cy="299" r="6"/><circle class="cls-2" cx="79.5" cy="525.61" r="6"/><circle class="cls-2" cx="1120.44" cy="672.48" r="6"/><circle class="cls-2" cx="1243.44" cy="26.02" r="6"/><circle class="cls-2" cx="139.49" cy="38.01" r="6"/><circle class="cls-2" cx="871.46" cy="594.49" r="6"/><circle class="cls-2" cx="367.48" cy="552.61" r="6"/><circle class="cls-2" cx="674.97" cy="715.98" r="6"/><circle class="cls-2" cx="1126.44" cy="378.5" r="6"/><circle class="cls-2" cx="574.39" cy="44.01" r="6"/><circle class="cls-2" cx="73.5" cy="721.98" r="6"/><circle class="cls-2" cx="6" cy="416" r="6"/><circle class="cls-2" cx="1231.44" cy="269" r="6"/><circle class="cls-2" cx="215.99" cy="79.23" r="6"/><circle class="cls-2" cx="34.21" cy="79.23" r="6"/><circle class="cls-2" cx="145.49" cy="249.5" r="6"/><circle class="cls-2" cx="1073.38" cy="6" r="6"/><circle class="cls-2" cx="999.92" cy="327.72" r="6"/></pattern></defs><title>bgplanets</title><g id="Layer_2" data-name="Layer 2"><g id="Background"><g id="Background-2" data-name="Background"><rect class="cls-3" width="8739.57" height="4303.02"/><rect id="Stars" class="cls-4" width="8739.57" height="4303.02"/></g></g><g id="Planet_2" data-name="Planet 2"><circle class="cls-5" cx="7556.47" cy="1202.54" r="78.53"/><path class="cls-6" d="M7556.56,1281.07a78.42,78.42,0,0,0,53.71-135.57c17.63,58.35-31.1,139.08-120.94,97.56A78.39,78.39,0,0,0,7556.56,1281.07Z"/><g class="cls-7"><path d="M7511.41,1138.24a78.9,78.9,0,0,0-22.85,24.88C7619.24,1191.08,7557.58,1156.85,7511.41,1138.24Z"/><path d="M7614.8,1255.11a78.6,78.6,0,0,0,13.27-20.33C7599.86,1229.63,7559.68,1227.52,7614.8,1255.11Z"/><path d="M7633.35,1218.59a78.85,78.85,0,0,0,1.65-16.05C7542.79,1179.28,7583.46,1201,7633.35,1218.59Z"/><path d="M7478,1199.53c0,1-.08,2-.08,3a79,79,0,0,0,1.16,13.39C7525.47,1230,7580.37,1235.77,7478,1199.53Z"/></g></g><g id="Planet_3" data-name="Planet 3"><circle class="cls-8" cx="6864.57" cy="1002.24" r="73.49"/><path class="cls-6" d="M6864.57,1075.73a73.47,73.47,0,0,0,50.33-127c16.52,54.67-29.14,130.31-113.31,91.41A73.45,73.45,0,0,0,6864.57,1075.73Z"/><g class="cls-7"><path d="M6803.82,960.88a73.24,73.24,0,0,0-8.44,16.56C6887.11,982.05,6835.72,959.47,6803.82,960.88Z"/><path d="M6935.14,1022.76a73.11,73.11,0,0,0,2.47-12.39c-39.69-11.54-106.88-17.38-146.36-12.89-.1,1.58-.17,3.16-.17,4.76a73.3,73.3,0,0,0,24.89,55.11c17.24-.74,58.66-4.75,86.56,7.83h0a73.84,73.84,0,0,0,18.21-15.57C6762.67,1029.52,6898.85,1014,6935.14,1022.76Z"/><path d="M6868.35,975.09c1.65-13.08,14.06-24.82,40.1-12s5.21,23.26-5,25S6866.44,990.19,6868.35,975.09Z"/></g></g><g id="Planet_4" data-name="Planet 4"><circle class="cls-9" cx="6377.6" cy="1532.45" r="78.53"/><path class="cls-6" d="M6377.69,1611a78.42,78.42,0,0,0,53.71-135.57c17.63,58.35-31.1,139.08-120.94,97.56A78.39,78.39,0,0,0,6377.69,1611Z"/><g class="cls-7"><path d="M6334.32,1485.1c3.94-7.67,16.75-6.75,16.5,1.75s-6,12.75-10.5,12S6329.57,1494.35,6334.32,1485.1Z"/><path d="M6360.32,1485.85c-2.67-.33-2.5,5.25,0,4.75S6364.32,1486.35,6360.32,1485.85Z"/><path d="M6356.07,1494.6c-.5,2.25,2.37,1.75,2.31,0S6356.57,1492.35,6356.07,1494.6Z"/></g><path class="cls-5" d="M6476.84,1527.74c-6.61-2.31-13.84-4.61-21.56-6.86a79.13,79.13,0,0,1,.86,11.57c0,1.79-.08,3.56-.2,5.32,3.23,1,6.35,2,9.35,2.95,19.41,6.38,33.53,11.38,33.53,14.18,0,2.2-16,2.23-36.39,1.24-3.15-.15-6.4-.35-9.75-.59a783.58,783.58,0,0,1-153.4-28.41c-3.22-1-6.35-2-9.35-2.95-19.41-6.38-33.53-11.09-33.53-14.18,0-2.9,16-2.23,36.39-1.24,3.14.15,6.4.35,9.75.59a78,78,0,0,1,6.7-15.53c-8-.66-15.6-1.11-22.6-1.32-33.29-1-47.68,3-49.69,13.89s10,19.75,41.42,30.76c6.61,2.31,13.84,4.61,21.56,6.86,21.19,6.18,46.12,12,72.41,16.87s51.64,8.35,73.64,10.17c8,.66,15.6,1.11,22.6,1.32q4.8.14,9.08.14c26.85,0,38.79-4.23,40.61-14C6520.27,1547.65,6508.27,1538.74,6476.84,1527.74Z"/></g><g id="Planet_5" data-name="Planet 5"><circle class="cls-10" cx="5532.53" cy="995.56" r="69.21"/><path class="cls-6" d="M5532.53,1064.77a69.19,69.19,0,0,0,47.39-119.61c15.55,51.49-27.44,122.71-106.7,86.08A69.16,69.16,0,0,0,5532.53,1064.77Z"/><g class="cls-7"><path d="M5600.49,982.52c-94.75,10.66-17.6-8.55-137.08,16.44a68.85,68.85,0,0,0,5.14,23c38.65-14.87,44.94-16.87,131.21-10a69.09,69.09,0,0,0,.74-29.47Z"/><path d="M5532.53,952.17c-5.66,4.44,6.72,4.59,10.53,1.5s6.67-9.6,17.14-8.8,20.44,1.12,20.61,1.12A69.17,69.17,0,0,0,5474,958.65c20-2,19.6-6.9,45.41-9C5533.22,948.37,5538.19,947.73,5532.53,952.17Z"/><path d="M5564.17,1041.06c-2.54,3.65-5.87,5.53-9.21,4.6-11.27-4.13-47.29-1-69.17.92A69.17,69.17,0,0,0,5581,1045C5578.68,1041.3,5566.71,1037.41,5564.17,1041.06Z"/></g></g><g id="Planet_6" data-name="Planet 6"><circle class="cls-11" cx="4959.51" cy="1419.5" r="65.9"/><path class="cls-11" d="M5025.41,1419.5a65.91,65.91,0,0,0-91.9-60.56l-1.53,7.17-7.25,3.4a3.5,3.5,0,1,0,3,6.34l4.88-2.29,3.69,5.46-17.3,8.12a3.5,3.5,0,1,0,3,6.34L4940,1385l3.35,5.7-6,2.83a3.5,3.5,0,1,0,3,6.34l6.62-3.11,3.32,5.64-14.91,7a3.5,3.5,0,1,0,3,6.34l15.5-7.28,3.42,5.82-2.4,1.12a3.5,3.5,0,1,0,3,6.34l3-1.4,1.87,3.17.25,3.09-16.08,7.55a3.5,3.5,0,1,0,3,6.34l13.71-6.43.55,6.76-5,2.34a3.5,3.5,0,1,0,3,6.34l2.54-1.19v7.45l-13.39,6.29a3.5,3.5,0,1,0,3,6.34l15.46-7.26,6.76,3.81-3.69,1.73a3.5,3.5,0,1,0,3,6.34l8.2-3.85,7.4,4.18-2.57,1.21a3.5,3.5,0,0,0-1.68,4.66l.09.16A65.89,65.89,0,0,0,5025.41,1419.5Z"/><path class="cls-7" d="M4893.61,1419.5a65.89,65.89,0,0,0,93.52,59.83l-.09-.16a3.5,3.5,0,0,1,1.68-4.66L4996,1471a3.16,3.16,0,0,0,1.52-4.2l-.26-.55a3.16,3.16,0,0,0-4.21-1.52L4975.7,1473a3.5,3.5,0,1,1-3-6.34l13.62-6.39a3.16,3.16,0,1,0-2.69-5.72l-29.46,13.83a3.5,3.5,0,1,1-3-6.34l40.92-19.19a3.16,3.16,0,0,0,1.52-4.2l-.18-.38a3.16,3.16,0,0,0-4.21-1.52l-27.21,12.75a3.5,3.5,0,1,1-3-6.34l11-5.16a3.16,3.16,0,0,0,1.52-4.2v0a3.16,3.16,0,0,0-4.21-1.52l-17.59,8.25a3.5,3.5,0,1,1-3-6.34l40.61-19.06a3.16,3.16,0,0,0,1.52-4.2l-.11-.23a3.16,3.16,0,0,0-4.21-1.52l-26.85,12.6a3.5,3.5,0,1,1-3-6.34l16.92-7.85a3.16,3.16,0,0,0,1.52-4.2l-.17-.36a3.16,3.16,0,0,0-4.21-1.52l-30.59,14.27a3.5,3.5,0,1,1-3-6.34l18.92-8.85a3.16,3.16,0,0,0,1.52-4.2l-.08-.18a3.16,3.16,0,0,0-4.21-1.52l-11.17,5.22a3.5,3.5,0,1,1-3-6.34l31.54-14.81a3.16,3.16,0,0,0,1.52-4.2l-.11-.23a3.16,3.16,0,0,0-4.21-1.52l-44.15,20.73a3.5,3.5,0,1,1-3-6.34l22.87-10.76a3.16,3.16,0,0,0,1.52-4.2l-.08-.17a3.16,3.16,0,0,0-4.21-1.52l-11.38,5.37a3.5,3.5,0,1,1-3-6.34l21-9.81a4.3,4.3,0,0,0,1.82-5A65.9,65.9,0,0,0,4893.61,1419.5Z"/><path class="cls-6" d="M4959.51,1485.4a65.88,65.88,0,0,0,45.13-113.89c14.81,49-26.13,116.84-101.6,82A65.86,65.86,0,0,0,4959.51,1485.4Z"/></g><g id="Pluto"><circle class="cls-12" cx="4426" cy="1356.31" r="36.77"/><path class="cls-6" d="M4426,1393.08a36.76,36.76,0,0,0,25.18-63.55c8.26,27.35-14.58,65.2-56.69,45.73A36.75,36.75,0,0,0,4426,1393.08Z"/></g><g id="Neptune"><circle class="cls-13" cx="3958.09" cy="1068.67" r="100.38"/><path class="cls-6" d="M3958.09,1169.05a100.36,100.36,0,0,0,68.74-173.49c22.56,74.68-39.8,178-154.77,124.85A100.32,100.32,0,0,0,3958.09,1169.05Z"/><circle class="cls-14" cx="3921.5" cy="1009.23" r="13.67"/></g><g id="Uranus"><circle class="cls-15" cx="3100.26" cy="924.36" r="73.04"/><path class="cls-6" d="M3100.26,997.4a73,73,0,0,0,50-126.25c16.41,54.34-29,129.52-112.62,90.85A73,73,0,0,0,3100.26,997.4Z"/></g><g id="Saturn"><circle class="cls-16" cx="2483.15" cy="1434.84" r="78.53"/><path class="cls-6" d="M2483.25,1513.37A78.42,78.42,0,0,0,2537,1377.8c17.63,58.35-31.1,139.08-120.94,97.56A78.39,78.39,0,0,0,2483.25,1513.37Z"/><path class="cls-17" d="M2613,1401.63c-2.55-10-17.1-13.31-47.18-10.84-5.18.42-10.71,1-16.48,1.77a78.24,78.24,0,0,1,6.81,13.27c1.81-.21,3.6-.41,5.34-.59,22.81-2.3,36.42-2,36.42.25s-10.71,8.77-31.83,17.71c-1.62.68-3.29,1.37-5,2.06-20.64,8.35-46.76,16.72-74.3,23.76s-54.48,12.25-76.6,14.83c-1.81.21-3.6.41-5.34.59-22.81,2.3-36.42,2.38-36.42-.25s10.71-8.77,31.83-17.71c1.62-.68,3.29-1.37,5-2.06a79.18,79.18,0,0,1-.6-9.59c0-1.79.08-3.56.2-5.32-5.42,2.11-10.56,4.24-15.31,6.36-27.57,12.28-38.73,22.2-36.18,32.17,2,7.88,11.54,11.62,30.32,11.62q7.44,0,16.86-.78c5.18-.42,10.71-1,16.48-1.77a684.94,684.94,0,0,0,144.49-37c5.42-2.11,10.56-4.24,15.31-6.36C2604.36,1421.52,2615.52,1411.59,2613,1401.63Z"/></g><g id="Jupiter"><circle class="cls-18" cx="1719.63" cy="1008.5" r="115.51"/><path class="cls-6" d="M1719.63,1124a115.49,115.49,0,0,0,79.11-199.65c26,85.94-45.8,204.82-178.1,143.68A115.44,115.44,0,0,0,1719.63,1124Z"/><path class="cls-7" d="M1835.14,1008.5c0-3.49-.16-6.94-.47-10.36H1604.58c-.3,3.41-.47,6.87-.47,10.36s.16,6.94.47,10.36h230.09C1835,1015.44,1835.14,1012,1835.14,1008.5Z"/><path class="cls-7" d="M1822.43,955.78H1616.82q-2.31,4.49-4.22,9.21h214.06Q1824.74,960.27,1822.43,955.78Z"/><path class="cls-7" d="M1616.82,1061.22h205.61q2.31-4.49,4.22-9.21H1612.6Q1614.51,1056.72,1616.82,1061.22Z"/><path class="cls-7" d="M1624,1073.28h191.3q3-4.46,5.63-9.21H1618.34Q1620.95,1068.81,1624,1073.28Z"/></g><g id="Mars"><circle class="cls-19" cx="1030.16" cy="1475.97" r="56.47"/><path class="cls-6" d="M1030.16,1532.45a56.46,56.46,0,0,0,38.67-97.61c12.69,42-22.39,100.14-87.07,70.24A56.44,56.44,0,0,0,1030.16,1532.45Z"/><g class="cls-7"><path d="M998.53,1455.63c0,3.24,12.61,3,12.61,3s12.61.24,12.61-3-12.61-3-12.61-3S998.53,1452.39,998.53,1455.63Z"/><path d="M985.92,1471.25c0,3.24,12.61,3,12.61,3s12.61.24,12.61-3-12.61-3-12.61-3S985.92,1468,985.92,1471.25Z"/><path d="M1011.13,1486.88c0,3.24,12.61,3,12.61,3s12.61.24,12.61-3-12.61-3-12.61-3S1011.13,1483.64,1011.13,1486.88Z"/></g></g><g id="Venus"><circle class="cls-17" cx="569.19" cy="1852.81" r="41.5"/><path class="cls-6" d="M569.19,1894.31a41.49,41.49,0,0,0,28.42-71.73c9.33,30.88-16.46,73.59-64,51.62A41.48,41.48,0,0,0,569.19,1894.31Z"/></g><g id="Mercury"><circle class="cls-12" cx="299.47" cy="2888.61" r="44.24"/><path class="cls-6" d="M299.47,2932.85a44.23,44.23,0,0,0,30.3-76.47c9.94,32.91-17.54,78.45-68.21,55A44.22,44.22,0,0,0,299.47,2932.85Z"/><circle class="cls-7" cx="279.88" cy="2859.16" r="1.92"/><circle class="cls-7" cx="290.21" cy="2860.53" r="1.92"/><circle class="cls-7" cx="299.47" cy="2865.07" r="1.92"/><circle class="cls-7" cx="273.67" cy="2870.59" r="1.92"/><circle class="cls-7" cx="281.38" cy="2877.66" r="1.92"/><circle class="cls-7" cx="268.71" cy="2884.66" r="1.92"/><circle class="cls-7" cx="276.9" cy="2885.78" r="1.92"/></g><g id="Satelite"><path class="cls-20" d="M1151.72,2492.79l14.89,10.73-14.89,24.05"/><path class="cls-20" d="M1233,2527.82l-14.86-24.3,14.86-10.71"/><path class="cls-12" d="M1154.73,2488.93V2527a5,5,0,0,1-5,5H1069a5,5,0,0,1-5-5v-38.09a5,5,0,0,1,5-5h80.7A5,5,0,0,1,1154.73,2488.93Zm-5.5,28.88v-19.66a2,2,0,0,0-3.42-1.42l-9.83,9.83a2,2,0,0,0,0,2.83l9.83,9.83A2,2,0,0,0,1149.23,2517.81Zm-17.14-15.13,9.83-9.83a2,2,0,0,0-1.42-3.42h-19.66a2,2,0,0,0-1.42,3.42l9.83,9.83A2,2,0,0,0,1132.09,2502.68Zm-11.25,23.86h19.66a2,2,0,0,0,1.42-3.42l-9.83-9.83a2,2,0,0,0-2.83,0l-9.83,9.83A2,2,0,0,0,1120.85,2526.53Zm-5.3-7.31,9.83-9.83a2,2,0,0,0,0-2.83l-9.83-9.83a2,2,0,0,0-3.42,1.42v19.66A2,2,0,0,0,1115.54,2519.23Zm-8.92-1.42v-19.66a2,2,0,0,0-3.42-1.42l-9.83,9.83a2,2,0,0,0,0,2.83l9.83,9.83A2,2,0,0,0,1106.63,2517.81Zm-17.14-15.13,9.83-9.83a2,2,0,0,0-1.42-3.42h-19.66a2,2,0,0,0-1.42,3.42l9.83,9.83A2,2,0,0,0,1089.49,2502.68Zm-11.25,23.86h19.66a2,2,0,0,0,1.42-3.42l-9.83-9.83a2,2,0,0,0-2.83,0l-9.83,9.83A2,2,0,0,0,1078.25,2526.53Zm-5.3-7.31,9.83-9.83a2,2,0,0,0,0-2.83l-9.83-9.83a2,2,0,0,0-3.42,1.42v19.66A2,2,0,0,0,1072.94,2519.23Z"/><path class="cls-12" d="M1320.72,2488.93V2527a5,5,0,0,1-5,5H1235a5,5,0,0,1-5-5v-38.1a5,5,0,0,1,5-5h80.7A5,5,0,0,1,1320.72,2488.93Zm-5.5,28.88v-19.66a2,2,0,0,0-3.42-1.42l-9.83,9.83a2,2,0,0,0,0,2.83l9.83,9.83A2,2,0,0,0,1315.23,2517.81Zm-17.14-15.13,9.83-9.83a2,2,0,0,0-1.42-3.42h-19.66a2,2,0,0,0-1.42,3.42l9.83,9.83A2,2,0,0,0,1298.09,2502.68Zm-11.25,23.86h19.66a2,2,0,0,0,1.42-3.42l-9.83-9.83a2,2,0,0,0-2.83,0l-9.83,9.83A2,2,0,0,0,1286.84,2526.53Zm-5.3-7.31,9.83-9.83a2,2,0,0,0,0-2.83l-9.83-9.83a2,2,0,0,0-3.42,1.42v19.66A2,2,0,0,0,1281.54,2519.23Zm-8.92-1.42v-19.66a2,2,0,0,0-3.42-1.42l-9.83,9.83a2,2,0,0,0,0,2.83l9.83,9.83A2,2,0,0,0,1272.62,2517.81Zm-17.14-15.13,9.83-9.83a2,2,0,0,0-1.42-3.42h-19.66a2,2,0,0,0-1.42,3.42l9.83,9.83A2,2,0,0,0,1255.49,2502.68Zm-11.25,23.86h19.66a2,2,0,0,0,1.42-3.42l-9.83-9.83a2,2,0,0,0-2.83,0l-9.83,9.83A2,2,0,0,0,1244.24,2526.53Zm-5.3-7.31,9.83-9.83a2,2,0,0,0,0-2.83l-9.83-9.83a2,2,0,0,0-3.42,1.42v19.66A2,2,0,0,0,1238.94,2519.23Z"/><path class="cls-12" d="M1166.61,2547.7a25.72,25.72,0,0,0,11.16,21.2,25.72,25.72,0,0,0-11.16,21.2v6.67a5,5,0,0,0,5,5h41.51a5,5,0,0,0,5-5v-6.67a25.72,25.72,0,0,0-11.16-21.2,25.72,25.72,0,0,0,11.16-21.2v-44.18h-51.54Z"/><rect class="cls-21" x="1177.09" y="2462.46" width="30.58" height="51.54" transform="translate(-1295.85 3680.6) rotate(-90)"/><path class="cls-22" d="M1223,2472.13a5.71,5.71,0,0,1-3.55,5.23c-5.88,2.38-50.38,1.63-55.76-.21a5.5,5.5,0,0,1,3.47-10.43c5.23,1.32,43.59,1.61,48.44.35a5.37,5.37,0,0,1,7,3.08A5.28,5.28,0,0,1,1223,2472.13Z"/><circle class="cls-23" cx="1192.37" cy="2518.37" r="3.45"/><circle class="cls-23" cx="1192.37" cy="2531.02" r="3.45"/><circle class="cls-23" cx="1192.37" cy="2543.67" r="3.45"/></g></g></svg>