<svg xmlns="http://www.w3.org/2000/svg" viewBox="0 0 134.9 74.28"><defs><style>.cls-1{fill:#505e7b;}.cls-2{fill:#8da8c4;}.cls-3{fill:#fff;}</style></defs><title>comet</title><g id="Layer_2" data-name="Layer 2"><g id="Comet"><path class="cls-1" d="M130.85.16,24.79,34.09l-.27.07a34.9,34.9,0,0,0-7.29,2.35C4.11,42.37-3,54.9,1.24,64.51S19.65,77.16,32.77,71.3a34.1,34.1,0,0,0,8.91-5.77,2.8,2.8,0,0,1,.35-.27L133.48,5.69A3.09,3.09,0,0,0,130.85.16Z"/><path class="cls-2" d="M33.43,65.06,97.63,23.24A3.09,3.09,0,0,0,95,17.72L22.49,40.91a3.09,3.09,0,0,0-1.88,4.2l8.32,18.63A3.09,3.09,0,0,0,33.43,65.06Z"/><ellipse class="cls-3" cx="24.81" cy="54.5" rx="18.75" ry="13.73" transform="translate(-20.07 14.85) rotate(-24.06)"/></g></g></svg>