<svg xmlns="http://www.w3.org/2000/svg" viewBox="0 0 159.31 159.31"><defs><style>.cls-1{fill:#1f9abf;}.cls-2{fill:#89d479;}.cls-3{opacity:0.2;}</style></defs><title>earth</title><g id="Layer_2" data-name="Layer 2"><g id="Earth"><circle class="cls-1" cx="79.65" cy="79.65" r="79.65"/><path class="cls-2" d="M17.33,58c2.5,14,14.06,22.25,18.56,23.69,0,0,4.13.5,7,6.38,0,0-.06-6.31-6.5-13.31s-9.5-12.06-6.12-17.19,9.81-3,11.81-2.62c0,0,2,.88,6.94-3.56,15.06-13.5,18.19-9.56,23.63-16C79,28.09,61.29,13.09,50.22,5.64a79.71,79.71,0,0,0-26.37,17.2C17,37.75,16,50.55,17.33,58Z"/><path class="cls-2" d="M123.27,40.57c7.33,2.25,4.4-6.93,12.67-7.25,4.64-.16,11.49,4.81,11.81,5A80.11,80.11,0,0,0,126.2,15C120.68,24,115.94,38.32,123.27,40.57Z"/><path class="cls-2" d="M150.63,43.51c-9.11,1.06-11.86-.94-14.36,1.06S121,59.44,129.1,79.51c1.51,3.45,6.58,5.56,10.42,5.06S150.35,83,151.19,95a28.53,28.53,0,0,0,3.58,11.18,79.65,79.65,0,0,0-4.14-62.66Z"/><path class="cls-2" d="M74,8.49c-1.7-.25-1,.75,0,1.42s8.55,8.83,8.8,13.92c0,2.17,1,1.33,1.5,0s4.92-7.58,7.5-10.08c.92-.92-.11-1.38-2.17-2.17C86.35,10.32,76.92,9,74,8.49Z"/><path class="cls-2" d="M45,88.33c6.5-1.67,18.48-6.84,25.73.32s21.08,15.17,21.08,15.17c5.83,3.58,9.75,14.17,1.42,22.58S65.52,156,65.52,156c-1.67,1.75-1.67.75-2.75-1.08s-4.08-5.83-3.42-26.83c.08-1.17.75-1.75-2.17-3.25s-13.92-7.17-13.33-21.25c.25-7.55-.07-12.16-.08-13.1C43.77,89.15,44.07,88.59,45,88.33Z"/><path class="cls-3" d="M79.65,159.31A79.63,79.63,0,0,0,134.2,21.64c17.9,59.26-31.58,141.24-122.81,99.07A79.6,79.6,0,0,0,79.65,159.31Z"/></g></g></svg>