<svg xmlns="http://www.w3.org/2000/svg" viewBox="0 0 48.82 116.06"><defs><style>.cls-1{fill:#4d242f;}.cls-2{fill:#b95536;}.cls-3{fill:#f6ad46;}</style></defs><title>fire</title><g id="Layer_2" data-name="Layer 2"><g id="Fire"><path class="cls-1" d="M.12,18.35C0,48.94,8.53,88.1,11.53,65.44c7,67,17.5,68,25.83,0,1.33,16.5,8.51,4.2,11.42-45.48C50.36-8.5-2.81-4.23.12,18.35Z"/><path class="cls-2" d="M3.08,15.48c0,23,6.94,46.46,9.61,32.63,8,45.17,14.83,45.67,23,0,1.5,11.5,7.63,1.37,9.82-31.65C45.59-2.06,3.64-.48,3.08,15.48Z"/><path class="cls-3" d="M6.68,12.82c0,13.78,4.49,33.95,8,23.95,6.18,33.17,12.18,32,19.18,0C35.53,44.6,42,33.94,42.69,14.1,43.6,2.35,7,3.54,6.68,12.82Z"/></g></g></svg>