<svg xmlns="http://www.w3.org/2000/svg" viewBox="0 0 231.03 231.03"><defs><style>.cls-1{fill:#e08a08;}.cls-2{opacity:0.2;}.cls-3{opacity:0.35;}</style></defs><title>jupiter</title><g id="Layer_2" data-name="Layer 2"><g id="Jupiter"><circle class="cls-1" cx="115.51" cy="115.51" r="115.51"/><path class="cls-2" d="M115.51,231A115.49,115.49,0,0,0,194.62,31.38c26,85.94-45.8,204.82-178.1,143.68A115.44,115.44,0,0,0,115.51,231Z"/><path class="cls-3" d="M231,115.51c0-3.49-.16-6.94-.47-10.36H.47C.16,108.57,0,112,0,115.51s.16,6.94.47,10.36H230.56C230.86,122.46,231,119,231,115.51Z"/><path class="cls-3" d="M218.32,62.79H12.71Q10.4,67.29,8.49,72H222.54Q220.63,67.29,218.32,62.79Z"/><path class="cls-3" d="M12.71,168.23H218.32q2.31-4.49,4.22-9.21H8.49Q10.4,163.74,12.71,168.23Z"/><path class="cls-3" d="M19.86,180.29h191.3q3-4.46,5.63-9.21H14.23Q16.84,175.83,19.86,180.29Z"/></g></g></svg>