<svg xmlns="http://www.w3.org/2000/svg" viewBox="0 0 180.13 66.9"><defs><style>.cls-1{fill:#d47a6a;}.cls-2{fill:#934f52;}</style></defs><title>lcraterback</title><g id="Layer_2" data-name="Layer 2"><g id="alienbg"><g id="lcraterback"><path class="cls-1" d="M31.61,35.25c18.28-5.54,36.74-3.88,75.15-13.85,10.15-2.59,31.57-7.94,48.56,0,3.55,1.68,4.3,5.34,2.58,9.29h0l22.22-14.93a38.66,38.66,0,0,0-2.9-4.7c-16-22.41-74.35-4.93-94.78,1.72s-35.7,5.91-60.07,10.34C9.21,25.51.72,34.59,0,45.38l26.55,6.23C22.14,44.9,22.79,37.92,31.61,35.25Z"/><path class="cls-2" d="M155.32,21.4c-17-7.94-38.41-2.59-48.56,0-38.41,10-56.87,8.31-75.15,13.85-8.82,2.67-9.47,9.65-5.06,16.36.45.67,1,1.35,1.5,2C33.3,60,43,65.77,54.32,66.63c24.19,1.85,34.35-6.46,51.89-13.47,9.2-3.69,29.74-6,41.72-12.56.18-.09.33-.2.5-.29,4.78-2.73,8-6.27,9.47-9.62C159.62,26.74,158.87,23.08,155.32,21.4Z"/></g></g></g></svg>