<svg xmlns="http://www.w3.org/2000/svg" viewBox="0 0 282.65 211.56"><defs><style>.cls-1{fill:#c76357;}.cls-2{fill:#904646;}.cls-3{fill:#ad534d;}.cls-4{fill:#d47a6a;}.cls-5{fill:#e37754;}</style></defs><title>lcraterfront</title><g id="Layer_2" data-name="Layer 2"><g id="alienbg"><g id="lcraterfront"><g id="lcraterfront-2" data-name="lcraterfront"><path class="cls-1" d="M268.37,27.79a57.76,57.76,0,0,1-24.31-8.18C237,15.4,229.07,9.2,218.59,0c4.17,8,3.83,15.32.38,21.68-5.18,9.53-17.4,17-32.09,21.62l-2.57.82-1.07.33-1.54.49-1,.32-1.57.49-1,.31-1.45.46-1.13.35-1.25.39-1.19.37-1.23.39-1.1.34-1.25.39-1.05.32-1.49.46-.7.22c3,1.66,5.77,3.34,8.28,5C197,69.9,199.48,86.32,195.42,107.85A7.51,7.51,0,0,0,199,104.6c15.51-32.5,55.64-50,72.62-56.13a29.28,29.28,0,0,0,4.81-2.22C287.59,39.7,283.07,29.55,268.37,27.79Z"/><path class="cls-2" d="M84.56,68.79h0c-1.8-.18-3.58-.43-5.37-.77l-.13,0c-.56-.1-1.11-.22-1.67-.34L77,67.55C76,67.3,74.86,67,73.77,66.7l-.12,0-1.35-.43-.13,0L71.43,66l-1.23-.43L68.91,65l-1.48-.61c-.46-.19-.93-.39-1.39-.6l-.93-.43-1.51-.73-.71-.36c-.73-.38-1.45-.77-2.17-1.18l-.63-.36c-.57-.33-1.14-.68-1.72-1l-.67-.42c-.76-.48-1.52-1-2.28-1.5C48,52.74,43.22,47,40.67,41.29a24.62,24.62,0,0,1-2.21-11.67l-.06.14a96.93,96.93,0,0,1-5.31,12.57C25.58,57.15,16,66.68,9.08,74.84c-5,5.88-8.6,11-9,17C-1.45,119.62,53.45,102.14,65,98c9.24-3.34,15.33-5.26,19.54-5.28h0C79,85.42,78.81,79,84.56,68.79Z"/><path class="cls-3" d="M174.57,54.78c-2.51-1.69-5.25-3.37-8.28-5l-1.94.6-.24.07-1.8.55-.06,0-1.88.58-.07,0-1.59.49-.41.12-3.24,1-.12,0-1.45.44-.18,0-1.46.44-.11,0-1.39.41,0,0-2.55.77-.36.1-.85.26-.21.06-1,.31-.16,0-.76.22-.34.11-2.25.67-.13,0-.32.09-.91.27-.58.17-.07,0-.17,0-2.16.75-1.2.41-.9.31-2.63.89-.84.28c-1,.36-2.1.7-3.14,1l-.2.07c-2.34.76-4.64,1.48-6.92,2.16l-.36.11c-1.08.32-2.15.62-3.22.92l-.13,0q-2.6.72-5.15,1.34t-5.08,1.13h0a78.25,78.25,0,0,1-23.1,1.51h0C78.81,79,79,85.42,84.56,92.67h0a10.15,10.15,0,0,1,2.87.36c4.18,1.23,59.33,12.06,78.53,14,13.79,1.42,22.88,3,28.28,1.25l1.11-.43.07,0C199.48,86.32,197,69.9,174.57,54.78Z"/><path class="cls-4" d="M218.59,0,196.36,14.93h0c-1.45,3.34-4.69,6.89-9.47,9.61l-.5.3c-12,6.53-32.52,8.87-41.73,12.55-17.54,7-27.69,15.33-51.88,13.48-11.33-.87-21-6.6-26.27-13a24.48,24.48,0,0,1-1.5-2L38.46,29.62a24.62,24.62,0,0,0,2.21,11.67C43.22,47,48,52.74,55.42,57.82c.76.53,1.52,1,2.28,1.5l.67.42c.58.35,1.15.7,1.72,1l.63.36c.72.41,1.44.8,2.17,1.18l.71.36,1.51.73.93.43c.46.21.93.41,1.39.6l1.48.61,1.29.49,1.23.43.74.24.13,0,1.35.43.12,0c1.09.32,2.18.6,3.27.85l.36.09c.56.12,1.11.24,1.67.34l.13,0c1.79.34,3.57.59,5.37.77a78.25,78.25,0,0,0,23.1-1.51h0q2.52-.51,5.08-1.13t5.15-1.34l.13,0c1.07-.3,2.14-.6,3.22-.92l.36-.11c2.28-.68,4.58-1.4,6.92-2.16l.2-.07c1-.34,2.09-.68,3.14-1l.84-.28,2.63-.89.9-.31,1.2-.41,2.16-.75.17,0,.07,0,.58-.17.91-.27.32-.09.13,0,2.25-.67.34-.11.76-.22.16,0,1-.31.21-.06.85-.26.36-.1,2.55-.77,0,0,1.39-.41.11,0,1.46-.44.18,0,1.45-.44.12,0,3.24-1,.41-.12,1.59-.49.07,0,1.88-.58.06,0,1.8-.55.24-.07,2.64-.82,1.49-.46,1.05-.32,1.25-.39,1.1-.34,1.23-.39,1.19-.37,1.25-.39,1.13-.35,1.45-.46,1-.31,1.57-.49,1-.32,1.54-.49,1.07-.33,2.57-.82c14.69-4.67,26.91-12.09,32.09-21.62C222.42,15.32,222.76,8,218.59,0Z"/></g><path class="cls-5" d="M272.93,46.63a28.45,28.45,0,0,1-4.71,2.18c-16.66,6-56,23.17-71.2,55a7.31,7.31,0,0,1-3.46,3.18l-.07,0-1.09.43c-5.29,1.67-14.21.16-27.73-1.23-18.82-1.93-72.89-12.55-77-13.76a10.1,10.1,0,0,0-2.81-.35c-4.13,0-10.1,1.91-19.15,5.18-11,4-61.87,20.19-63.7-3.62H2V211.56H278.54V40.93C277.7,42.94,275.88,44.91,272.93,46.63Z"/></g></g></g></svg>