<svg xmlns="http://www.w3.org/2000/svg" xmlns:xlink="http://www.w3.org/1999/xlink" viewBox="0 0 8739.57 4303.02"><defs><style>.cls-1,.cls-27{fill:none;}.cls-16,.cls-2{fill:#fff;}.cls-3{fill:url(#linear-gradient);}.cls-4{fill:url(#New_Pattern_2);}.cls-5{fill:#c05002;}.cls-6{opacity:0.2;}.cls-16,.cls-7{opacity:0.35;}.cls-8{fill:#e38102;}.cls-9{fill:#999;}.cls-10{fill:#fdab67;}.cls-11{fill:#029fc7;}.cls-12{fill:#00aa9d;}.cls-13{fill:#e5c659;}.cls-14{fill:#e35285;}.cls-15{fill:#967594;}.cls-17{fill:#1a9cba;}.cls-18{fill:#f6d66b;}.cls-19{fill:#e08a08;}.cls-20{fill:#505e7b;}.cls-21{fill:#8da8c4;}.cls-22{fill:#d8dbdb;}.cls-23{fill:#7e8788;}.cls-24{fill:#a5abac;}.cls-25{fill:#6d4727;}.cls-26{fill:#5d330f;}.cls-27{stroke:#999;stroke-width:5.5px;}.cls-28{fill:#1f9abf;}.cls-29{fill:#d9d9d9;}.cls-30{fill:#bc6868;}</style><linearGradient id="linear-gradient" x1="4445.36" y1="-1711.22" x2="4445.36" y2="-6301.86" gradientTransform="matrix(0.94, 0, 0, -0.94, 202.94, -1604.01)" gradientUnits="userSpaceOnUse"><stop offset="0" stop-color="#111926"/><stop offset="0.66" stop-color="#111926"/><stop offset="1" stop-color="#706872"/></linearGradient><pattern id="New_Pattern_2" data-name="New Pattern 2" width="1171.16" height="682.37" patternTransform="matrix(0.94, 0, 0, -0.94, -1464.64, -339.71)" patternUnits="userSpaceOnUse" viewBox="0 0 1171.16 682.37"><rect class="cls-1" width="1171.16" height="682.37"/><rect class="cls-1" width="1171.16" height="682.37"/><circle class="cls-2" cx="208.08" cy="292.43" r="5.62"/><circle class="cls-2" cx="538.4" cy="200.94" r="5.62"/><circle class="cls-2" cx="834.16" cy="170.01" r="5.62"/><circle class="cls-2" cx="436.23" cy="491.52" r="5.62"/><circle class="cls-2" cx="834.16" cy="473.11" r="5.62"/><circle class="cls-2" cx="655.57" cy="402.1" r="5.62"/><circle class="cls-2" cx="74.52" cy="189.69" r="5.62"/><circle class="cls-2" cx="1050.24" cy="52.02" r="5.62"/><circle class="cls-2" cx="1165.53" cy="657.98" r="5.62"/><circle class="cls-2" cx="130.75" cy="646.74" r="5.62"/><circle class="cls-2" cx="816.86" cy="125.13" r="5.62"/><circle class="cls-2" cx="344.46" cy="164.38" r="5.62"/><circle class="cls-2" cx="632.68" cy="11.25" r="5.62"/><circle class="cls-2" cx="1055.86" cy="327.58" r="5.62"/><circle class="cls-2" cx="538.4" cy="641.12" r="5.62"/><circle class="cls-2" cx="68.89" cy="5.62" r="5.62"/><circle class="cls-2" cx="5.62" cy="292.43" r="5.62"/><circle class="cls-2" cx="1154.29" cy="430.22" r="5.62"/><circle class="cls-2" cx="202.46" cy="608.1" r="5.62"/><circle class="cls-2" cx="32.07" cy="608.1" r="5.62"/><circle class="cls-2" cx="136.37" cy="448.5" r="5.62"/><circle class="cls-2" cx="1006.13" cy="676.74" r="5.62"/><circle class="cls-2" cx="937.27" cy="375.18" r="5.62"/></pattern></defs><title>mainbg</title><g id="Layer_2" data-name="Layer 2"><g id="Background"><g id="Background-2"><rect class="cls-3" width="8739.57" height="4303.02"/><rect id="Stars" class="cls-4" width="8739.57" height="4303.02"/></g></g><g id="Mars"><circle class="cls-5" cx="490.03" cy="980.69" r="56.47"/><path class="cls-6" d="M490,1037.16a56.45,56.45,0,0,0,38.67-97.6c12.7,42-22.39,100.13-87.07,70.24A56.45,56.45,0,0,0,490,1037.16Z"/><g class="cls-7"><path d="M458.39,960.34c0,3.24,12.61,3,12.61,3s12.61.24,12.61-3-12.61-3-12.61-3S458.39,957.1,458.39,960.34Z"/><path d="M445.79,976c0,3.24,12.6,3,12.6,3s12.61.24,12.61-3-12.61-3-12.61-3S445.79,972.73,445.79,976Z"/><path d="M471,991.59c0,3.24,12.61,3,12.61,3s12.6.24,12.6-3-12.6-3-12.6-3S471,988.35,471,991.59Z"/></g></g><g id="Venus"><circle class="cls-8" cx="569.19" cy="1852.8" r="41.5"/><path class="cls-6" d="M569.19,1894.3a41.49,41.49,0,0,0,28.42-71.73c9.33,30.88-16.46,73.59-64,51.63A41.48,41.48,0,0,0,569.19,1894.3Z"/></g><g id="Mercury"><circle class="cls-9" cx="255.23" cy="3043.68" r="44.24"/><path class="cls-6" d="M255.23,3087.92a44.23,44.23,0,0,0,30.29-76.47c10,32.92-17.54,78.45-68.21,55A44.2,44.2,0,0,0,255.23,3087.92Z"/><circle class="cls-7" cx="235.63" cy="3014.23" r="1.92"/><circle class="cls-7" cx="245.97" cy="3015.6" r="1.92"/><circle class="cls-7" cx="255.23" cy="3020.14" r="1.92"/><circle class="cls-7" cx="229.43" cy="3025.66" r="1.92"/><circle class="cls-7" cx="237.14" cy="3032.73" r="1.92"/><circle class="cls-7" cx="224.47" cy="3039.74" r="1.92"/><circle class="cls-7" cx="232.65" cy="3040.85" r="1.92"/></g><g id="Rock"><circle class="cls-10" cx="7556.47" cy="1131.22" r="78.53"/><path class="cls-6" d="M7556.56,1209.75a78.41,78.41,0,0,0,53.71-135.57c17.63,58.35-31.1,139.08-120.93,97.56A78.4,78.4,0,0,0,7556.56,1209.75Z"/><g class="cls-7"><path d="M7511.41,1066.92a78.83,78.83,0,0,0-22.85,24.88C7619.24,1119.76,7557.58,1085.53,7511.41,1066.92Z"/><path d="M7614.8,1183.79a78.86,78.86,0,0,0,13.27-20.33C7599.86,1158.31,7559.68,1156.2,7614.8,1183.79Z"/><path d="M7633.35,1147.27a78.58,78.58,0,0,0,1.65-16C7542.79,1108,7583.46,1129.67,7633.35,1147.27Z"/><path d="M7478,1128.21c0,1-.07,2-.07,3a78.72,78.72,0,0,0,1.16,13.39C7525.47,1158.67,7580.37,1164.45,7478,1128.21Z"/></g><circle class="cls-11" cx="6864.57" cy="930.92" r="73.49"/><path class="cls-6" d="M6864.57,1004.41a73.48,73.48,0,0,0,50.33-127c16.51,54.68-29.14,130.31-113.31,91.41A73.43,73.43,0,0,0,6864.57,1004.41Z"/><g class="cls-7"><path d="M6803.82,889.56a72.86,72.86,0,0,0-8.44,16.57C6887.11,910.73,6835.72,888.15,6803.82,889.56Z"/><path d="M6935.14,951.44a73.46,73.46,0,0,0,2.47-12.39c-39.69-11.54-106.89-17.38-146.36-12.89-.1,1.57-.17,3.16-.17,4.76A73.3,73.3,0,0,0,6816,986c17.25-.74,58.66-4.75,86.56,7.83h0a73.78,73.78,0,0,0,18.22-15.58C6762.67,958.2,6898.85,942.66,6935.14,951.44Z"/><path d="M6868.35,903.77c1.65-13.08,14.06-24.82,40.09-12s5.21,23.26-5,25S6866.44,918.87,6868.35,903.77Z"/></g><circle class="cls-12" cx="6472.83" cy="1357.13" r="78.53"/><path class="cls-6" d="M6472.92,1435.66a78.41,78.41,0,0,0,53.71-135.57c17.63,58.35-31.1,139.08-120.93,97.56A78.38,78.38,0,0,0,6472.92,1435.66Z"/><g class="cls-7"><path d="M6429.55,1309.78c3.94-7.67,16.75-6.75,16.5,1.75s-6,12.75-10.5,12S6424.8,1319,6429.55,1309.78Z"/><path d="M6455.55,1310.53c-2.67-.34-2.5,5.25,0,4.75S6459.55,1311,6455.55,1310.53Z"/><path d="M6451.3,1319.28c-.5,2.25,2.37,1.75,2.31,0S6451.8,1317,6451.3,1319.28Z"/></g><path class="cls-10" d="M6572.06,1352.42c-6.6-2.31-13.84-4.61-21.56-6.86a78.88,78.88,0,0,1,.86,11.57c0,1.79-.08,3.56-.2,5.32,3.22,1,6.35,2,9.35,2.94,19.41,6.38,33.53,11.39,33.53,14.19,0,2.2-16,2.22-36.39,1.23-3.14-.15-6.4-.35-9.75-.59a783.24,783.24,0,0,1-153.4-28.41c-3.23-1-6.35-2-9.35-2.94-19.41-6.39-33.53-11.09-33.53-14.19,0-2.9,16-2.22,36.38-1.23q4.72.22,9.75.59a78.59,78.59,0,0,1,6.71-15.53c-8-.66-15.6-1.11-22.6-1.32-33.29-1-47.68,3-49.69,13.89s10,19.75,41.42,30.76c6.61,2.31,13.84,4.61,21.56,6.86,21.19,6.18,46.13,12,72.41,16.87s51.64,8.35,73.64,10.18c8,.66,15.6,1.11,22.6,1.32,3.2.09,6.22.14,9.08.14,26.85,0,38.79-4.23,40.6-14C6615.49,1372.34,6603.49,1363.43,6572.06,1352.42Z"/><circle class="cls-13" cx="5532.53" cy="924.24" r="69.21"/><path class="cls-6" d="M5532.53,993.45a69.19,69.19,0,0,0,47.39-119.62c15.56,51.49-27.44,122.72-106.7,86.08A69.15,69.15,0,0,0,5532.53,993.45Z"/><g class="cls-7"><path d="M5600.49,911.2c-94.75,10.67-17.6-8.55-137.08,16.44a68.87,68.87,0,0,0,5.14,23c38.65-14.87,44.94-16.88,131.21-10a68.93,68.93,0,0,0,.73-29.47Z"/><path d="M5532.53,880.85c-5.66,4.45,6.72,4.59,10.53,1.51s6.67-9.6,17.14-8.81,20.45,1.12,20.61,1.13A69.16,69.16,0,0,0,5474,887.33c20-2,19.6-6.9,45.41-9C5533.22,877.05,5538.19,876.41,5532.53,880.85Z"/><path d="M5564.17,969.74c-2.54,3.65-5.87,5.53-9.21,4.61-11.26-4.13-47.29-1-69.17.92a69.16,69.16,0,0,0,95.16-1.6C5578.68,970,5566.71,966.09,5564.17,969.74Z"/></g><circle class="cls-14" cx="4959.51" cy="1348.18" r="65.9"/><path class="cls-14" d="M5025.41,1348.18a65.91,65.91,0,0,0-91.9-60.56l-1.54,7.17-7.25,3.41a3.5,3.5,0,0,0,1.49,6.67,3.45,3.45,0,0,0,1.49-.34l4.88-2.29,3.69,5.46-17.3,8.12a3.5,3.5,0,0,0,1.49,6.67,3.58,3.58,0,0,0,1.49-.33l18.07-8.49,3.35,5.7-6,2.83a3.5,3.5,0,0,0,1.49,6.67,3.44,3.44,0,0,0,1.48-.34l6.62-3.1,3.32,5.64-14.91,7a3.5,3.5,0,0,0,1.49,6.67,3.57,3.57,0,0,0,1.48-.33l15.5-7.28,3.42,5.82-2.39,1.12a3.5,3.5,0,0,0,1.49,6.67,3.57,3.57,0,0,0,1.48-.33l3-1.4,1.86,3.17.25,3.09-16.07,7.55a3.5,3.5,0,0,0,1.49,6.67,3.57,3.57,0,0,0,1.48-.33l13.71-6.44.54,6.77-5,2.33a3.5,3.5,0,0,0,1.49,6.67,3.57,3.57,0,0,0,1.48-.33l2.54-1.2v7.45l-13.39,6.29a3.5,3.5,0,0,0,1.49,6.67,3.45,3.45,0,0,0,1.49-.34l15.46-7.25,6.75,3.81-3.69,1.73a3.5,3.5,0,0,0,1.49,6.67,3.58,3.58,0,0,0,1.49-.33l8.19-3.85,7.41,4.18-2.58,1.21a3.49,3.49,0,0,0-1.68,4.65l.09.16A65.9,65.9,0,0,0,5025.41,1348.18Z"/><path class="cls-7" d="M4893.61,1348.18a65.9,65.9,0,0,0,93.52,59.83l-.09-.16a3.49,3.49,0,0,1,1.68-4.65l7.31-3.52a3.17,3.17,0,0,0,1.52-4.21l-.26-.54a3.16,3.16,0,0,0-4.2-1.52l-17.39,8.25a3.58,3.58,0,0,1-1.49.33,3.5,3.5,0,0,1-1.49-6.67l13.62-6.39a3.16,3.16,0,1,0-2.68-5.72L4954.2,1397a3.45,3.45,0,0,1-1.49.34,3.5,3.5,0,0,1-1.49-6.67l40.92-19.19a3.16,3.16,0,0,0,1.52-4.2l-.17-.38a3.17,3.17,0,0,0-4.21-1.52l-27.21,12.75a3.57,3.57,0,0,1-1.48.33,3.5,3.5,0,0,1-1.49-6.67l11-5.16a3.16,3.16,0,0,0,1.52-4.2l0,0a3.16,3.16,0,0,0-4.2-1.52l-17.59,8.25a3.57,3.57,0,0,1-1.48.33,3.5,3.5,0,0,1-1.49-6.67l40.61-19.06a3.16,3.16,0,0,0,1.52-4.2l-.11-.23a3.16,3.16,0,0,0-4.2-1.52l-26.85,12.6a3.57,3.57,0,0,1-1.48.33,3.5,3.5,0,0,1-1.49-6.67l16.91-7.85a3.17,3.17,0,0,0,1.52-4.21l-.17-.35a3.14,3.14,0,0,0-4.2-1.52l-30.59,14.27a3.57,3.57,0,0,1-1.48.33,3.5,3.5,0,0,1-1.49-6.67l18.91-8.85a3.17,3.17,0,0,0,1.52-4.21l-.08-.18a3.16,3.16,0,0,0-4.21-1.51l-11.17,5.21a3.44,3.44,0,0,1-1.48.34,3.5,3.5,0,0,1-1.49-6.67l31.54-14.82a3.16,3.16,0,0,0,1.52-4.2l-.11-.23a3.17,3.17,0,0,0-4.21-1.52L4922,1322.16a3.58,3.58,0,0,1-1.49.33,3.5,3.5,0,0,1-1.49-6.67l22.88-10.76a3.15,3.15,0,0,0,1.51-4.2l-.08-.17a3.14,3.14,0,0,0-4.2-1.52l-11.38,5.36a3.45,3.45,0,0,1-1.49.34,3.5,3.5,0,0,1-1.49-6.67l21-9.82a4.28,4.28,0,0,0,1.82-5A65.9,65.9,0,0,0,4893.61,1348.18Z"/><path class="cls-6" d="M4959.51,1414.08a65.88,65.88,0,0,0,45.13-113.9c14.8,49-26.13,116.85-101.6,82A65.85,65.85,0,0,0,4959.51,1414.08Z"/><circle class="cls-9" cx="4426" cy="1284.99" r="36.77"/><path class="cls-6" d="M4426,1321.76a36.76,36.76,0,0,0,25.18-63.55c8.26,27.35-14.58,65.2-56.69,45.73A36.72,36.72,0,0,0,4426,1321.76Z"/><circle class="cls-15" cx="3958.09" cy="997.35" r="100.38"/><path class="cls-6" d="M3958.09,1097.73a100.35,100.35,0,0,0,68.74-173.49c22.56,74.68-39.8,178-154.77,124.85A100.32,100.32,0,0,0,3958.09,1097.73Z"/><circle class="cls-16" cx="3921.5" cy="937.91" r="13.67"/><circle class="cls-17" cx="3100.26" cy="853.04" r="73.04"/><path class="cls-6" d="M3100.26,926.08a73,73,0,0,0,50-126.24c16.42,54.34-29,129.52-112.62,90.85A73,73,0,0,0,3100.26,926.08Z"/><circle class="cls-18" cx="2483.15" cy="1363.52" r="78.53"/><path class="cls-6" d="M2483.25,1442.05A78.42,78.42,0,0,0,2537,1306.48c17.63,58.36-31.1,139.08-120.94,97.56A78.39,78.39,0,0,0,2483.25,1442.05Z"/><path class="cls-8" d="M2613,1330.31c-2.55-10-17.1-13.3-47.18-10.84-5.18.42-10.7,1-16.47,1.77a78.7,78.7,0,0,1,6.81,13.27c1.81-.21,3.59-.41,5.34-.59,22.81-2.3,36.42-2.05,36.42.25s-10.72,8.77-31.83,17.71c-1.62.68-3.29,1.37-5,2-20.64,8.36-46.76,16.72-74.3,23.77s-54.48,12.25-76.6,14.83c-1.81.21-3.6.41-5.34.59-22.81,2.3-36.42,2.38-36.42-.25s10.71-8.77,31.83-17.71c1.61-.68,3.28-1.37,5-2.05a77.89,77.89,0,0,1-.61-9.59c0-1.79.09-3.56.2-5.32-5.42,2.12-10.55,4.24-15.31,6.36-27.57,12.28-38.73,22.21-36.18,32.17,2,7.88,11.54,11.62,30.32,11.62,5,0,10.58-.26,16.86-.78,5.19-.42,10.71-1,16.48-1.77a685.41,685.41,0,0,0,144.49-37c5.43-2.12,10.56-4.24,15.31-6.36C2604.36,1350.2,2615.52,1340.27,2613,1330.31Z"/><circle class="cls-19" cx="1719.63" cy="937.18" r="115.51"/><path class="cls-6" d="M1719.63,1052.69A115.48,115.48,0,0,0,1798.73,853c26,85.94-45.8,204.82-178.1,143.68A115.44,115.44,0,0,0,1719.63,1052.69Z"/><path class="cls-7" d="M1835.14,937.18q0-5.25-.47-10.36H1604.58c-.3,3.41-.47,6.86-.47,10.36s.17,6.94.47,10.35h230.09Q1835.14,942.42,1835.14,937.18Z"/><path class="cls-7" d="M1822.43,884.46H1616.82q-2.31,4.49-4.22,9.2h214.06Q1824.74,889,1822.43,884.46Z"/><path class="cls-7" d="M1616.82,989.9h205.61q2.31-4.5,4.23-9.21H1612.6Q1614.52,985.4,1616.82,989.9Z"/><path class="cls-7" d="M1624,1002h191.3q3-4.47,5.63-9.21H1618.34Q1620.95,997.49,1624,1002Z"/><path class="cls-20" d="M6232.69,1015.71l-106.06,33.93-.28.07a35,35,0,0,0-7.28,2.35c-13.12,5.86-20.28,18.39-16,28s18.4,12.65,31.52,6.79a34.16,34.16,0,0,0,8.92-5.77,2.88,2.88,0,0,1,.34-.27l91.45-59.57A3.09,3.09,0,0,0,6232.69,1015.71Z"/><path class="cls-21" d="M6135.27,1080.61l64.19-41.82a3.08,3.08,0,0,0-2.63-5.52l-72.5,23.19a3.08,3.08,0,0,0-1.88,4.2l8.32,18.62A3.08,3.08,0,0,0,6135.27,1080.61Z"/><ellipse class="cls-2" cx="6126.64" cy="1070.05" rx="18.75" ry="13.73" transform="translate(96.14 2591.16) rotate(-24.06)"/><path class="cls-22" d="M3508.46,1403.78c9.74-10,20.17-.85,28.13-11.21s.41-15.7,13.25-26.3,16.59-3.35,17.67-19.51c-12.23-14.77-33.59,8.47-50.7,22.16-2.34,2-5.18,2.44-8.35,2.51h0c-4.49,5-8.77,2.18-19,13.19s-17.13,9.78-21,7.34c-1.46,4.51-.87,9.73,3.68,15.49a37.55,37.55,0,0,0,3,3.36C3481.55,1407.25,3498.71,1413.76,3508.46,1403.78Z"/><path class="cls-23" d="M3489.5,1384.62c10.19-11,14.47-8.16,19-13.19h0c-5.78.12-12.67-1.17-19.78,2.38,0,0-16.53,6.87-20.19,18.15C3472.37,1394.4,3479.3,1395.63,3489.5,1384.62Z"/><path class="cls-23" d="M3497,1391.55c-5.13,1-1.84,8.77,3.06,7.75S3503.36,1390.33,3497,1391.55Z"/><path class="cls-23" d="M3519.06,1388.09c-1.84.17-1.43,7.91.61,7.32S3525.38,1387.47,3519.06,1388.09Z"/><path class="cls-23" d="M3527.21,1371.16c-1.73,5.92,4.08,11.62,8.56,7.14s6.32-7.14,1.43-8.36S3528.09,1368.17,3527.21,1371.16Z"/><path class="cls-24" d="M3517.63,1413c7.34-3.26,22.83-13,25.08-17.13s-3.47-12.64,8.76-21.61,5.76-1,22.25-11.43a31.59,31.59,0,0,0-3.69-12.22,22.48,22.48,0,0,0-2.52-3.81c-1.08,16.16-4.83,8.91-17.67,19.51s-5.29,15.94-13.25,26.3-18.39,1.23-28.13,11.21-26.91,3.47-33.33,7a31.7,31.7,0,0,0,21.09,9.68C3499.71,1412.76,3510.3,1416.22,3517.63,1413Z"/><path class="cls-23" d="M3538.83,1407.45c21.35-11.91,36.25-27.45,34.89-44.66-16.49,10.38-10,2.46-22.25,11.43s-6.52,17.54-8.76,21.61S3525,1409.7,3517.63,1413s-17.92-.2-21.41,7.53C3508.93,1421.38,3523.57,1416,3538.83,1407.45Z"/><path class="cls-25" d="M1085.68,1457.45c9.43,10.61,26.52,23.57,43.61,11.79s36.54,4.71,52.45-11.79-6.49-17.68,20.62-41.25c20.63-20-11.2-42.43-20-38.3s-28.29-17.68-38.9-8.25-3.53,13.55-15.91,20-33.59-2.94-31.23,20-.59,25.93-10.61,30.64S1081.09,1452.74,1085.68,1457.45Z"/><path class="cls-26" d="M1107.49,1424.45c7.45-10,17.68-15.39,15.91-3.87s-8.84,22.73-15.91,18.6S1103.92,1429.21,1107.49,1424.45Z"/><path class="cls-26" d="M1134,1424.45c-.58,6.48,10,7.07,10.61,0S1134.59,1418,1134,1424.45Z"/><path class="cls-26" d="M1172.31,1440.06c4.12,4.43.59,16.21-8.84,14.44-4.42-1.47-2.65-3.53,1.47-8.83S1168.18,1438,1172.31,1440.06Z"/><path class="cls-26" d="M1142.55,1385c-1.47,5,1.47,11.2,9.43,8.84s8.25-8,13.26-6.48,7.37-4.42,2.21-7.37S1147,1368.47,1142.55,1385Z"/><path class="cls-26" d="M1190,1397.93c0,9.47-3.25,12.67-11.2,10.61s.88-3.83,4.42-7.66S1190,1393.61,1190,1397.93Z"/><path class="cls-26" d="M1167.45,1397.34c.3,3.39,8-1,6.56-3S1167,1392.34,1167.45,1397.34Z"/></g><g id="Satelite"><path class="cls-27" d="M1078.18,2505.79l14.89,10.73-14.89,24.05"/><path class="cls-27" d="M1159.47,2540.82l-14.86-24.3,14.86-10.71"/><path class="cls-9" d="M1081.19,2501.94V2540a5,5,0,0,1-5,5H995.5a5,5,0,0,1-5-5v-38.09a5,5,0,0,1,5-5h80.69A5,5,0,0,1,1081.19,2501.94Zm-5.49,28.87v-19.66a2,2,0,0,0-3.42-1.41l-9.83,9.83a2,2,0,0,0,0,2.83l9.83,9.83A2,2,0,0,0,1075.7,2530.81Zm-17.14-15.13,9.83-9.83a2,2,0,0,0-1.42-3.42h-19.65a2,2,0,0,0-1.42,3.42l9.83,9.83A2,2,0,0,0,1058.56,2515.68Zm-11.24,23.86H1067a2,2,0,0,0,1.42-3.42l-9.83-9.83a2,2,0,0,0-2.83,0l-9.83,9.83A2,2,0,0,0,1047.32,2539.54Zm-5.31-7.31,9.83-9.83a2,2,0,0,0,0-2.83l-9.83-9.83a2,2,0,0,0-3.42,1.41v19.66A2,2,0,0,0,1042,2532.23Zm-8.92-1.42v-19.66a2,2,0,0,0-3.42-1.41l-9.83,9.83a2,2,0,0,0,0,2.83l9.83,9.83A2,2,0,0,0,1033.09,2530.81ZM1016,2515.68l9.83-9.83a2,2,0,0,0-1.42-3.42h-19.66a2,2,0,0,0-1.41,3.42l9.82,9.83A2,2,0,0,0,1016,2515.68Zm-11.25,23.86h19.66a2,2,0,0,0,1.42-3.42l-9.83-9.83a2,2,0,0,0-2.84,0l-9.82,9.83A2,2,0,0,0,1004.71,2539.54Zm-5.3-7.31,9.83-9.83a2,2,0,0,0,0-2.83l-9.83-9.83a2,2,0,0,0-3.42,1.41v19.66A2,2,0,0,0,999.41,2532.23Z"/><path class="cls-9" d="M1247.19,2501.93V2540a5,5,0,0,1-5,5h-80.7a5,5,0,0,1-5-5v-38.1a5,5,0,0,1,5-5h80.7A5,5,0,0,1,1247.19,2501.93Zm-5.5,28.88v-19.66a2,2,0,0,0-3.42-1.41l-9.83,9.83a2,2,0,0,0,0,2.83l9.83,9.83A2,2,0,0,0,1241.69,2530.81Zm-17.13-15.13,9.83-9.83a2,2,0,0,0-1.42-3.42h-19.66a2,2,0,0,0-1.42,3.42l9.83,9.83A2,2,0,0,0,1224.56,2515.68Zm-11.25,23.86H1233a2,2,0,0,0,1.42-3.42l-9.83-9.83a2,2,0,0,0-2.84,0l-9.83,9.83A2,2,0,0,0,1213.31,2539.54Zm-5.3-7.31,9.83-9.83a2,2,0,0,0,0-2.83l-9.83-9.83a2,2,0,0,0-3.42,1.41v19.66A2,2,0,0,0,1208,2532.23Zm-8.92-1.42v-19.66a2,2,0,0,0-3.42-1.41l-9.83,9.83a2,2,0,0,0,0,2.83l9.83,9.83A2,2,0,0,0,1199.09,2530.81ZM1182,2515.68l9.83-9.83a2,2,0,0,0-1.41-3.42h-19.66a2,2,0,0,0-1.42,3.42l9.83,9.83A2,2,0,0,0,1182,2515.68Zm-11.24,23.86h19.66a2,2,0,0,0,1.41-3.42l-9.83-9.83a2,2,0,0,0-2.83,0l-9.83,9.83A2,2,0,0,0,1170.71,2539.54Zm-5.31-7.31,9.83-9.83a2,2,0,0,0,0-2.83l-9.83-9.83a2,2,0,0,0-3.42,1.41v19.66A2,2,0,0,0,1165.4,2532.23Z"/><path class="cls-9" d="M1093.07,2560.7a25.73,25.73,0,0,0,11.16,21.2,25.73,25.73,0,0,0-11.16,21.2v6.67a5,5,0,0,0,5,5h41.51a5,5,0,0,0,5-5v-6.67a25.73,25.73,0,0,0-11.16-21.2,25.73,25.73,0,0,0,11.16-21.2v-44.18h-51.54Z"/><rect class="cls-28" x="1103.55" y="2475.46" width="30.58" height="51.54" transform="translate(-1382.39 3620.07) rotate(-90)"/><path class="cls-29" d="M1149.47,2485.13a5.72,5.72,0,0,1-3.55,5.23c-5.88,2.39-50.38,1.63-55.76-.2a5.5,5.5,0,0,1,3.46-10.44c5.23,1.33,43.59,1.61,48.44.36a5.46,5.46,0,0,1,7.41,5.05Z"/><circle class="cls-30" cx="1118.84" cy="2531.37" r="3.45"/><circle class="cls-30" cx="1118.84" cy="2544.02" r="3.45"/><circle class="cls-30" cx="1118.84" cy="2556.67" r="3.45"/></g></g></svg>