<svg xmlns="http://www.w3.org/2000/svg" viewBox="0 0 112.95 112.95"><defs><style>.cls-1{fill:#c05002;}.cls-2{opacity:0.2;}.cls-3{opacity:0.35;}</style></defs><title>mars</title><g id="Layer_2" data-name="Layer 2"><g id="Mars"><circle class="cls-1" cx="56.47" cy="56.47" r="56.47"/><path class="cls-2" d="M56.47,112.95A56.46,56.46,0,0,0,95.15,15.34c12.69,42-22.39,100.14-87.07,70.24A56.44,56.44,0,0,0,56.47,112.95Z"/><g class="cls-3"><path d="M24.84,36.13c0,3.24,12.61,3,12.61,3s12.61.24,12.61-3-12.61-3-12.61-3S24.84,32.89,24.84,36.13Z"/><path d="M12.23,51.75c0,3.24,12.61,3,12.61,3s12.61.24,12.61-3-12.61-3-12.61-3S12.23,48.51,12.23,51.75Z"/><path d="M37.44,67.38c0,3.24,12.61,3,12.61,3s12.61.24,12.61-3-12.61-3-12.61-3S37.44,64.14,37.44,67.38Z"/></g></g></g></svg>