<svg xmlns="http://www.w3.org/2000/svg" viewBox="0 0 138.41 138.41"><defs><style>.cls-1{fill:#e5c659;}.cls-2{opacity:0.2;}.cls-3{opacity:0.35;}</style></defs><title>planet5</title><g id="Layer_2" data-name="Layer 2"><g id="Planet_5" data-name="Planet 5"><circle class="cls-1" cx="69.21" cy="69.21" r="69.21"/><path class="cls-2" d="M69.21,138.41A69.19,69.19,0,0,0,116.6,18.8C132.15,70.28,89.16,141.51,9.9,104.88A69.16,69.16,0,0,0,69.21,138.41Z"/><g class="cls-3"><path d="M137.17,56.17C42.41,66.83,119.57,47.62.09,72.61a68.85,68.85,0,0,0,5.14,23c38.65-14.87,44.94-16.87,131.21-10a69.09,69.09,0,0,0,.74-29.47Z"/><path d="M69.21,25.82c-5.66,4.44,6.72,4.59,10.53,1.5s6.67-9.6,17.14-8.8,20.44,1.12,20.61,1.12A69.17,69.17,0,0,0,10.68,32.29c20-2,19.6-6.9,45.41-9C69.89,22,74.87,21.38,69.21,25.82Z"/><path d="M100.85,114.71c-2.54,3.65-5.87,5.53-9.21,4.6-11.27-4.13-47.29-1-69.17.92a69.17,69.17,0,0,0,95.16-1.6C115.36,114.94,103.38,111.06,100.85,114.71Z"/></g></g></g></svg>