<svg xmlns="http://www.w3.org/2000/svg" viewBox="0 0 146.98 146.98"><defs><style>.cls-1{fill:#029fc7;}.cls-2{opacity:0.2;}.cls-3{opacity:0.35;}</style></defs><title>planet3</title><g id="Layer_2" data-name="Layer 2"><g id="Planet_3" data-name="Planet 3"><circle class="cls-1" cx="73.49" cy="73.49" r="73.49"/><path class="cls-2" d="M73.49,147A73.47,73.47,0,0,0,123.82,20c16.52,54.67-29.14,130.31-113.31,91.41A73.45,73.45,0,0,0,73.49,147Z"/><g class="cls-3"><path d="M12.74,32.14A73.24,73.24,0,0,0,4.3,48.7C96,53.31,44.64,30.72,12.74,32.14Z"/><path d="M144.06,94a73.11,73.11,0,0,0,2.47-12.39C106.84,70.08,39.65,64.24.17,68.73.07,70.31,0,71.89,0,73.49A73.3,73.3,0,0,0,24.89,128.6c17.24-.74,58.66-4.75,86.56,7.83h0a73.84,73.84,0,0,0,18.21-15.57C-28.41,100.78,107.78,85.23,144.06,94Z"/><path d="M77.27,46.34c1.65-13.08,14.06-24.82,40.1-12s5.21,23.26-5,25S75.36,61.44,77.27,46.34Z"/></g></g></g></svg>