<svg xmlns="http://www.w3.org/2000/svg" viewBox="0 0 131.79 131.79"><defs><style>.cls-1{fill:#e35285;}.cls-2{opacity:0.35;}.cls-3{opacity:0.2;}</style></defs><title>planet6</title><g id="Layer_2" data-name="Layer 2"><g id="Planet_6" data-name="Planet 6"><circle class="cls-1" cx="65.9" cy="65.9" r="65.9"/><path class="cls-1" d="M131.79,65.9A65.91,65.91,0,0,0,39.89,5.34l-1.53,7.17-7.25,3.4a3.5,3.5,0,1,0,3,6.34L39,20l3.69,5.46-17.3,8.12a3.5,3.5,0,1,0,3,6.34l18.08-8.49,3.35,5.7-6,2.83a3.5,3.5,0,1,0,3,6.34l6.62-3.11,3.32,5.64-14.91,7a3.5,3.5,0,1,0,3,6.34l15.5-7.28,3.42,5.82-2.4,1.12a3.5,3.5,0,1,0,3,6.34l3-1.4,1.87,3.17L69.31,73,53.24,80.54a3.5,3.5,0,1,0,3,6.34l13.71-6.43.55,6.76-5,2.34a3.5,3.5,0,1,0,3,6.34L71,94.68v7.45l-13.39,6.29a3.5,3.5,0,1,0,3,6.34L76,107.49l6.76,3.81L79.11,113a3.5,3.5,0,1,0,3,6.34l8.2-3.85,7.4,4.18-2.57,1.21a3.5,3.5,0,0,0-1.68,4.66l.09.16A65.89,65.89,0,0,0,131.79,65.9Z"/><path class="cls-2" d="M0,65.9a65.89,65.89,0,0,0,93.52,59.83l-.09-.16a3.5,3.5,0,0,1,1.68-4.66l7.31-3.52a3.16,3.16,0,0,0,1.52-4.2l-.26-.55a3.16,3.16,0,0,0-4.21-1.52l-17.39,8.25a3.5,3.5,0,1,1-3-6.34l13.62-6.39A3.16,3.16,0,1,0,90,100.92L60.58,114.75a3.5,3.5,0,1,1-3-6.34L98.53,89.23a3.16,3.16,0,0,0,1.52-4.2l-.18-.38a3.16,3.16,0,0,0-4.21-1.52L68.46,95.88a3.5,3.5,0,1,1-3-6.34l11-5.16A3.16,3.16,0,0,0,78,80.17v0a3.16,3.16,0,0,0-4.21-1.52L56.21,86.88a3.5,3.5,0,0,1-3-6.34L93.85,61.48a3.16,3.16,0,0,0,1.52-4.2L95.26,57a3.16,3.16,0,0,0-4.21-1.52L64.21,68.13a3.5,3.5,0,1,1-3-6.34l16.92-7.85a3.16,3.16,0,0,0,1.52-4.2l-.17-.36a3.16,3.16,0,0,0-4.21-1.52L44.71,62.13a3.5,3.5,0,0,1-3-6.34l18.92-8.85a3.16,3.16,0,0,0,1.52-4.2l-.08-.18A3.16,3.16,0,0,0,57.88,41L46.71,46.25a3.5,3.5,0,0,1-3-6.34L75.28,25.1a3.16,3.16,0,0,0,1.52-4.2l-.11-.23a3.16,3.16,0,0,0-4.21-1.52L28.33,39.88a3.5,3.5,0,1,1-3-6.34L48.23,22.78a3.16,3.16,0,0,0,1.52-4.2l-.08-.17a3.16,3.16,0,0,0-4.21-1.52L34.08,22.25a3.5,3.5,0,0,1-3-6.34l21-9.81a4.3,4.3,0,0,0,1.82-5A65.9,65.9,0,0,0,0,65.9Z"/><path class="cls-3" d="M65.9,131.79A65.88,65.88,0,0,0,111,17.9c14.81,49-26.13,116.84-101.6,82A65.86,65.86,0,0,0,65.9,131.79Z"/></g></g></svg>