<svg xmlns="http://www.w3.org/2000/svg" viewBox="0 0 200.76 200.76"><defs><style>.cls-1{fill:#fd5b3e;}.cls-2{opacity:0.2;}.cls-3{opacity:0.35;}</style></defs><title>planet1</title><g id="Layer_2" data-name="Layer 2"><g id="Planet_1" data-name="Planet 1"><circle class="cls-1" cx="100.38" cy="100.38" r="100.38"/><path class="cls-2" d="M100.38,200.76A100.36,100.36,0,0,0,169.12,27.27c22.56,74.68-39.8,178-154.77,124.85A100.32,100.32,0,0,0,100.38,200.76Z"/><g class="cls-3"><path d="M104.32,34.15H64.19a3.46,3.46,0,0,1,0-6.93h40.13a3.46,3.46,0,0,1,0,6.93Z"/><path d="M64.33,107.31H16.69a3.46,3.46,0,0,1,0-6.93H64.33a3.46,3.46,0,0,1,0,6.93Z"/><path d="M131.31,150.76H65.92a3.46,3.46,0,0,1,0-6.93h65.4a3.46,3.46,0,0,1,0,6.93Z"/><path d="M125,167.94H92.48a3.46,3.46,0,0,1,0-6.93H125a3.46,3.46,0,1,1,0,6.93Z"/><path d="M160.33,54.51H130.59a3.46,3.46,0,1,1,0-6.93h29.74a3.46,3.46,0,0,1,0,6.93Z"/><path d="M149.65,67.36H119.91a3.46,3.46,0,0,1,0-6.93h29.74a3.46,3.46,0,0,1,0,6.93Z"/><path d="M63.46,76.31H43.11a3.46,3.46,0,1,1,0-6.93H63.46a3.46,3.46,0,1,1,0,6.93Z"/><path d="M150.95,132h-23.1a3.46,3.46,0,1,1,0-6.93h23.1a3.46,3.46,0,1,1,0,6.93Z"/><path d="M66.93,175.92a3.46,3.46,0,0,0-3.46-3.46H30.55a101,101,0,0,0,7.95,6.93h25A3.46,3.46,0,0,0,66.93,175.92Z"/><path d="M179.67,97.38h-23.1a3.46,3.46,0,0,1,0-6.93h23.1a3.46,3.46,0,0,1,0,6.93Z"/></g></g></g></svg>