<svg xmlns="http://www.w3.org/2000/svg" viewBox="0 0 157.06 157.06"><defs><style>.cls-1{fill:#fdab67;}.cls-2{opacity:0.2;}.cls-3{opacity:0.35;}</style></defs><title>planet2</title><g id="Layer_2" data-name="Layer 2"><g id="Planet_2" data-name="Planet 2"><circle class="cls-1" cx="78.53" cy="78.53" r="78.53"/><path class="cls-2" d="M78.62,157.06A78.42,78.42,0,0,0,132.34,21.49C150,79.84,101.24,160.57,11.4,119.05A78.39,78.39,0,0,0,78.62,157.06Z"/><g class="cls-3"><path d="M33.47,14.23A78.9,78.9,0,0,0,10.62,39.11C141.3,67.07,79.64,32.84,33.47,14.23Z"/><path d="M136.86,131.1a78.6,78.6,0,0,0,13.27-20.33C121.93,105.62,81.74,103.51,136.86,131.1Z"/><path d="M155.41,94.58a78.85,78.85,0,0,0,1.65-16.05C64.85,55.27,105.53,77,155.41,94.58Z"/><path d="M.08,75.52c0,1-.08,2-.08,3A79,79,0,0,0,1.16,91.92C47.53,106,102.43,111.76.08,75.52Z"/></g></g></g></svg>