<svg xmlns="http://www.w3.org/2000/svg" viewBox="0 0 281.74 157.06"><defs><style>.cls-1{fill:#00aa9d;}.cls-2{opacity:0.2;}.cls-3{opacity:0.35;}.cls-4{fill:#fdab67;}</style></defs><title>planet4</title><g id="Layer_2" data-name="Layer 2"><g id="Planet_4" data-name="Planet 4"><circle class="cls-1" cx="140.87" cy="78.53" r="78.53"/><path class="cls-2" d="M141,157.06A78.42,78.42,0,0,0,194.68,21.49c17.63,58.35-31.1,139.08-120.94,97.56A78.39,78.39,0,0,0,141,157.06Z"/><g class="cls-3"><path d="M97.59,31.18c3.94-7.67,16.75-6.75,16.5,1.75s-6,12.75-10.5,12S92.84,40.43,97.59,31.18Z"/><path d="M123.59,31.93c-2.67-.33-2.5,5.25,0,4.75S127.59,32.43,123.59,31.93Z"/><path d="M119.34,40.68c-.5,2.25,2.37,1.75,2.31,0S119.84,38.43,119.34,40.68Z"/></g><path class="cls-4" d="M240.11,73.82c-6.61-2.31-13.84-4.61-21.56-6.86a79.13,79.13,0,0,1,.86,11.57c0,1.79-.08,3.56-.2,5.32,3.23,1,6.35,2,9.35,2.95C248,93.17,262.08,98.18,262.08,101c0,2.2-16,2.23-36.39,1.24-3.15-.15-6.4-.35-9.75-.59a725.8,725.8,0,0,1-77.43-10.38,725.79,725.79,0,0,1-76-18c-3.22-1-6.35-2-9.35-2.95C33.78,63.88,19.66,59.18,19.66,56.08c0-2.9,16-2.23,36.39-1.24,3.14.15,6.4.35,9.75.59a78,78,0,0,1,6.7-15.53c-8-.66-15.6-1.11-22.6-1.32-33.29-1-47.68,3-49.69,13.89s10,19.75,41.42,30.76c6.61,2.31,13.84,4.61,21.56,6.86,21.19,6.18,46.12,12,72.41,16.87s51.64,8.35,73.64,10.17c8,.66,15.6,1.11,22.6,1.32q4.8.14,9.08.14c26.85,0,38.79-4.23,40.61-14C283.54,93.74,271.54,84.82,240.11,73.82Z"/></g></g></svg>