<svg xmlns="http://www.w3.org/2000/svg" viewBox="0 0 248.8 92.39"><defs><style>.cls-1{fill:#d47a6a;}.cls-2{fill:#934f52;}</style></defs><title>rcraterback</title><g id="Layer_2" data-name="Layer 2"><g id="alienbg"><g id="rcraterback"><path class="cls-1" d="M248.8,62.68a32,32,0,0,0-.83-5.29c-3.1-12.51-14.1-22.55-30.09-25.46-33.66-6.12-54.74-5.1-83-14.28-3-1-6.6-2.12-10.64-3.35C95.47,5.55,43.47-7.49,16.17,5.44A30.89,30.89,0,0,0,4,15.27a53.42,53.42,0,0,0-4,6.5l19.27,13,11.42,7.67h0a12.26,12.26,0,0,1-1.08-6.94,7.85,7.85,0,0,1,4.65-5.9c23.46-11,53-3.57,67.07,0,53,13.77,78.55,11.48,103.79,19.13a17.3,17.3,0,0,1,7.57,4.25c4.58,4.7,3.84,11.62-.58,18.35Z"/><path class="cls-2" d="M212.7,52.93a17.3,17.3,0,0,0-7.57-4.25C179.89,41,154.38,43.32,101.34,29.55c-14-3.57-43.61-11-67.07,0a7.85,7.85,0,0,0-4.65,5.9,12.26,12.26,0,0,0,1.08,6.94c2.07,4.78,6.77,9.87,13.77,13.68,16.56,9,44.91,12.26,57.63,17.34,24.23,9.7,38.26,21.17,71.67,18.62,17.27-1.32,31.82-10.82,38.35-20.75C216.54,64.55,217.28,57.63,212.7,52.93Z"/></g></g></g></svg>