<svg xmlns="http://www.w3.org/2000/svg" viewBox="0 0 390.41 179.17"><defs><style>.cls-1{fill:#e37754;}.cls-2{fill:#c76357;}.cls-3{fill:#904646;}.cls-4{fill:#ad534d;}.cls-5{fill:#d47a6a;}</style></defs><title>rcraterfront</title><g id="Layer_2" data-name="Layer 2"><g id="alienbg"><g id="rcraterfront"><path class="cls-1" d="M299,133.67c-12.51-4.52-20.75-7.13-26.46-7.15a13.7,13.7,0,0,0-3.88.48c-5.66,1.67-80.33,16.34-106.33,19-18.67,1.92-31,4-38.29,1.69l-1.51-.58-.09,0a10.09,10.09,0,0,1-4.78-4.4c-21-44-75.33-67.67-98.33-76-10.38-3.76-15-9.28-15-14.46L4,52.14v127H386.82V130.25C382.17,160.82,314,139.07,299,133.67Z"/><g id="rcraterfront-2" data-name="rcraterfront"><path class="cls-2" d="M160.73,68.71l-.74-.23-2.29-.7-1.33-.42-1.85-.57-1.41-.44-1.9-.59-1.37-.43-2-.62-1.44-.45-2-.63L143,63.18l-2.09-.65-1.43-.46-2.31-.72-1.26-.4-3.59-1.14c-29-9.22-51.06-26.22-47.64-48.4A36.9,36.9,0,0,1,88.5,0c-4.59,4-8.81,7.62-12.75,10.85-23,18.91-36.56,25.21-56,27.53C-3,41.1-8.15,58.45,15.31,67S94.2,99.59,115.62,144.47A10.31,10.31,0,0,0,120.5,149C114.26,115.91,119.13,91.56,160.73,68.71Z"/><path class="cls-3" d="M313.86,79.87c-1.05.72-2.1,1.4-3.14,2.06l-.93.58-2.38,1.43-.86.49c-1,.57-2,1.11-3,1.63l-1,.49c-.69.35-1.39.69-2.08,1l-1.28.59q-1,.44-1.92.84l-2.06.83-1.77.68-1.7.59-1.21.4-1.86.58-.16,0c-1.5.45-3,.83-4.52,1.18l-.5.12c-.77.17-1.53.33-2.3.48l-.18,0q-3.7.7-7.41,1.07v0c7.94,14.09,7.7,23,0,33h0c5.82,0,14.24,2.68,27,7.29,16,5.78,91.81,29.93,89.77-8.5-1.7-22.44-36.3-37.06-53-85.69a1.54,1.54,0,0,0-.08-.19C338.14,53.59,331.22,68,313.86,79.87Z"/><path class="cls-4" d="M273.62,95v0c-10.46,1-21,.09-31.91-2.08h0c-2.3-.46-4.61-1-7-1.54l-.24-.06c-1.43-.35-2.88-.72-4.33-1.11l-.35-.09-2.21-.6-.51-.14-3.79-1.09-1-.31-1.94-.58-1.73-.53-2.49-.79-1.64-.52-1.55-.5-2.87-1c-.45-.14-.9-.3-1.35-.45l-2.41-.8-.94-.32L202,81.39l-1-.34-3.44-1.18-.25-.08-.49-.14h0l-.47-.14-.17-.05L194.74,79l-.23-.07-.6-.18-.38-.11-.95-.28-.26-.08-1-.3-.29-.09-1.17-.35-.12,0-1.53-.46h0l-1.47-.44-.3-.09-1.63-.5-.34-.1L183,75.52l-.48-.15-3.79-1.15-.46-.14-1.62-.49-.59-.18-4.33-1.32-.53-.16-2-.62-.36-.11-2.51-.77-.11,0-2.45-.75-.35-.11-2.68-.83c-41.6,22.85-46.47,47.2-40.23,80.25l.09,0,1.54.6c7.45,2.36,20,.23,39.06-1.73,26.52-2.72,102.69-17.68,108.47-19.38a13.78,13.78,0,0,1,3.95-.49h0C281.32,118,281.56,109.11,273.62,95Z"/><path class="cls-5" d="M337.29,40.91l-36.67,8.6c-6.53,9.93-21.08,19.43-38.36,20.75-33.41,2.55-47.43-8.92-71.66-18.61C177.88,46.56,149.52,43.32,133,34.3c-7-3.81-11.7-8.9-13.78-13.68h0L107.77,13,88.5,0a36.9,36.9,0,0,0-3.85,11.41c-3.42,22.18,18.64,39.18,47.64,48.4L135.88,61l1.26.4,2.31.72,1.43.46,2.09.65,1.44.45,2,.63,1.44.45,2,.62,1.37.43,1.9.59,1.41.44,1.85.57,1.33.42,2.29.7,3.42,1.06.35.11,2.45.75.11,0,2.51.77.36.11,2,.62.53.16,4.33,1.32.59.18,1.62.49.46.14,3.79,1.15.48.15,1.42.42.34.1,1.63.5.3.09,1.47.44h0l1.53.46.12,0,1.17.35.29.09,1,.3.26.08.95.28.38.11.6.18.23.07,1.45.43.17.05.47.14h0l.49.14.25.08L201,81.05l1,.34,3.32,1.14.94.32,2.41.8c.45.15.9.31,1.35.45l2.87,1,1.55.5,1.64.52,2.49.79,1.73.53,1.94.58,1,.31,3.79,1.09.51.14,2.21.6.35.09c1.45.39,2.9.76,4.33,1.11l.24.06c2.34.56,4.65,1.08,7,1.54h0c10.89,2.17,21.45,3.1,31.91,2.08q3.7-.36,7.41-1.07l.18,0c.77-.15,1.53-.31,2.3-.48l.5-.12c1.51-.35,3-.74,4.52-1.18l.16,0,1.86-.58,1.21-.4,1.7-.59,1.77-.68,2.06-.83q1-.41,1.92-.84l1.28-.59c.69-.33,1.39-.67,2.08-1l1-.49c1-.52,2-1.06,3-1.63l.86-.49,2.38-1.43.93-.58c1-.66,2.09-1.34,3.14-2.06C331.22,68,338.14,53.59,337.29,40.91Z"/></g></g></g></g></svg>