<svg xmlns="http://www.w3.org/2000/svg" viewBox="0 0 129.17 106.65"><defs><style>.cls-1{fill:#6d4727;}.cls-2{fill:#5d330f;}</style></defs><title>rock</title><g id="Layer_2" data-name="Layer 2"><g id="Rock"><path class="cls-1" d="M5.66,90.19C15.09,100.8,32.18,113.76,49.26,102s36.54,4.71,52.45-11.79-6.48-17.68,20.62-41.25c20.62-20-11.2-42.43-20-38.3S74-7,63.41,2.39s-3.54,13.55-15.91,20-33.59-2.95-31.23,20S15.68,68.39,5.66,73.1,1.06,85.48,5.66,90.19Z"/><path class="cls-2" d="M27.46,57.19c7.45-9.95,17.68-15.39,15.91-3.87S34.53,76,27.46,71.92,23.9,62,27.46,57.19Z"/><path class="cls-2" d="M54,57.19c-.59,6.48,10,7.07,10.6,0S54.57,50.71,54,57.19Z"/><path class="cls-2" d="M92.28,72.8c4.12,4.43.59,16.22-8.84,14.45-4.42-1.47-2.65-3.54,1.47-8.84S88.16,70.72,92.28,72.8Z"/><path class="cls-2" d="M62.52,17.71c-1.47,5,1.47,11.2,9.43,8.84s8.25-8,13.26-6.48,7.37-4.42,2.21-7.37S66.94,1.21,62.52,17.71Z"/><path class="cls-2" d="M110,30.67c0,9.47-3.24,12.67-11.2,10.61s.88-3.83,4.42-7.66S109.95,26.35,110,30.67Z"/><path class="cls-2" d="M87.42,30.08c.3,3.39,8-1,6.56-3S87,25.08,87.42,30.08Z"/></g></g></svg>