<svg xmlns="http://www.w3.org/2000/svg" viewBox="0 0 256.7 135.32"><defs><style>.cls-1{fill:none;stroke:#999;stroke-width:5.5px;}.cls-2{fill:#999;}.cls-3{fill:#1f9abf;}.cls-4{fill:#d9d9d9;}.cls-5{fill:#bc6868;}</style></defs><title>satelite</title><g id="Layer_2" data-name="Layer 2"><g id="Satelite"><path class="cls-1" d="M87.69,26.33l14.89,10.73L87.69,61.11"/><path class="cls-1" d="M169,61.36l-14.86-24.3L169,26.36"/><path class="cls-2" d="M90.7,22.48V60.57a5,5,0,0,1-5,5H5a5,5,0,0,1-5-5V22.48a5,5,0,0,1,5-5H85.7A5,5,0,0,1,90.7,22.48Zm-5.5,28.88V31.7a2,2,0,0,0-3.42-1.42L72,40.11a2,2,0,0,0,0,2.83l9.83,9.83A2,2,0,0,0,85.21,51.36ZM68.07,36.22,77.9,26.4A2,2,0,0,0,76.48,23H56.82a2,2,0,0,0-1.42,3.42l9.83,9.83A2,2,0,0,0,68.07,36.22ZM56.82,60.08H76.48a2,2,0,0,0,1.42-3.42l-9.83-9.83a2,2,0,0,0-2.83,0l-9.83,9.83A2,2,0,0,0,56.82,60.08Zm-5.3-7.31,9.83-9.83a2,2,0,0,0,0-2.83l-9.83-9.83A2,2,0,0,0,48.1,31.7V51.36A2,2,0,0,0,51.52,52.77ZM42.6,51.36V31.7a2,2,0,0,0-3.42-1.42l-9.83,9.83a2,2,0,0,0,0,2.83l9.83,9.83A2,2,0,0,0,42.6,51.36ZM25.47,36.22,35.3,26.4A2,2,0,0,0,33.88,23H14.22A2,2,0,0,0,12.8,26.4l9.83,9.83A2,2,0,0,0,25.47,36.22ZM14.22,60.08H33.88a2,2,0,0,0,1.42-3.42l-9.83-9.83a2,2,0,0,0-2.83,0L12.8,56.66A2,2,0,0,0,14.22,60.08Zm-5.3-7.31,9.83-9.83a2,2,0,0,0,0-2.83L8.92,30.28A2,2,0,0,0,5.5,31.7V51.36A2,2,0,0,0,8.92,52.77Z"/><path class="cls-2" d="M256.7,22.48v38.1a5,5,0,0,1-5,5H171a5,5,0,0,1-5-5V22.48a5,5,0,0,1,5-5h80.7A5,5,0,0,1,256.7,22.48Zm-5.5,28.88V31.7a2,2,0,0,0-3.42-1.42L238,40.11a2,2,0,0,0,0,2.83l9.83,9.83A2,2,0,0,0,251.2,51.36ZM234.07,36.22l9.83-9.83A2,2,0,0,0,242.48,23H222.82a2,2,0,0,0-1.42,3.42l9.83,9.83A2,2,0,0,0,234.07,36.22ZM222.82,60.08h19.66a2,2,0,0,0,1.42-3.42l-9.83-9.83a2,2,0,0,0-2.83,0l-9.83,9.83A2,2,0,0,0,222.82,60.08Zm-5.3-7.31,9.83-9.83a2,2,0,0,0,0-2.83l-9.83-9.83a2,2,0,0,0-3.42,1.42V51.36A2,2,0,0,0,217.52,52.77Zm-8.92-1.42V31.7a2,2,0,0,0-3.42-1.42l-9.83,9.83a2,2,0,0,0,0,2.83l9.83,9.83A2,2,0,0,0,208.6,51.36ZM191.46,36.22l9.83-9.83A2,2,0,0,0,199.88,23H180.22a2,2,0,0,0-1.42,3.42l9.83,9.83A2,2,0,0,0,191.46,36.22ZM180.22,60.08h19.66a2,2,0,0,0,1.42-3.42l-9.83-9.83a2,2,0,0,0-2.83,0l-9.83,9.83A2,2,0,0,0,180.22,60.08Zm-5.3-7.31,9.83-9.83a2,2,0,0,0,0-2.83l-9.83-9.83a2,2,0,0,0-3.42,1.42V51.36A2,2,0,0,0,174.91,52.77Z"/><path class="cls-2" d="M102.58,81.25a25.72,25.72,0,0,0,11.16,21.2,25.72,25.72,0,0,0-11.16,21.2v6.67a5,5,0,0,0,5,5h41.51a5,5,0,0,0,5-5v-6.67A25.72,25.72,0,0,0,143,102.44a25.72,25.72,0,0,0,11.16-21.2V37.06H102.58Z"/><rect class="cls-3" x="113.06" y="-4" width="30.58" height="51.54" transform="translate(106.58 150.12) rotate(-90)"/><path class="cls-4" d="M159,5.68a5.71,5.71,0,0,1-3.55,5.23c-5.88,2.38-50.38,1.63-55.76-.21A5.5,5.5,0,0,1,103.13.27c5.23,1.32,43.59,1.61,48.44.35a5.37,5.37,0,0,1,7,3.08A5.28,5.28,0,0,1,159,5.68Z"/><circle class="cls-5" cx="128.35" cy="51.91" r="3.45"/><circle class="cls-5" cx="128.35" cy="64.56" r="3.45"/><circle class="cls-5" cx="128.35" cy="77.21" r="3.45"/></g></g></svg>