<svg xmlns="http://www.w3.org/2000/svg" viewBox="0 0 260.35 157.06"><defs><style>.cls-1{fill:#f6d66b;}.cls-2{opacity:0.2;}.cls-3{fill:#e38102;}</style></defs><title>saturn</title><g id="Layer_2" data-name="Layer 2"><g id="Saturn"><circle class="cls-1" cx="130.17" cy="78.53" r="78.53"/><path class="cls-2" d="M130.27,157.06A78.42,78.42,0,0,0,184,21.49C201.61,79.84,152.88,160.57,63,119.05A78.39,78.39,0,0,0,130.27,157.06Z"/><path class="cls-3" d="M260,45.32c-2.55-10-17.1-13.31-47.18-10.84-5.18.42-10.71,1-16.48,1.77a78.24,78.24,0,0,1,6.81,13.27c1.81-.21,3.6-.41,5.34-.59,22.81-2.3,36.42-2,36.42.25s-10.71,8.77-31.83,17.71c-1.62.68-3.29,1.37-5,2.06-20.64,8.35-46.76,16.72-74.3,23.76S79.32,105,57.2,107.54c-1.81.21-3.6.41-5.34.59-22.81,2.3-36.42,2.38-36.42-.25s10.71-8.77,31.83-17.71c1.62-.68,3.29-1.37,5-2.06a79.18,79.18,0,0,1-.6-9.59c0-1.79.08-3.56.2-5.32-5.42,2.11-10.56,4.24-15.31,6.36C9,91.85-2.2,101.78.35,111.74c2,7.88,11.54,11.62,30.32,11.62q7.44,0,16.86-.78c5.18-.42,10.71-1,16.48-1.77a632.48,632.48,0,0,0,73.26-14.54A632.46,632.46,0,0,0,208.5,83.84c5.42-2.11,10.56-4.24,15.31-6.36C251.38,65.2,262.54,55.28,260,45.32Z"/></g></g></svg>