<svg xmlns="http://www.w3.org/2000/svg" viewBox="0 0 1440 467.11"><defs><style>.cls-1{fill:#47391b;}.cls-2{fill:#54472b;}.cls-3{fill:#61553b;}.cls-4{fill:#6e634b;}.cls-5{fill:#586670;}.cls-6{fill:#f9f8e5;}.cls-7{opacity:0.35;}</style></defs><title>setting</title><g id="Layer_2" data-name="Layer 2"><g id="Background"><g id="Setting"><g id="Ground"><rect class="cls-1" y="307.04" width="1440" height="160.07"/><rect class="cls-2" y="348.09" width="1440" height="119.03"/><rect class="cls-3" y="389.63" width="1440" height="77.49"/><rect class="cls-4" y="424.76" width="1440" height="42.35"/></g><g id="Mountains"><g id="Mountain_1" data-name="Mountain 1"><polygon class="cls-5" points="0 168.46 123.15 0 346.33 307.04 0 307.04 0 168.46"/><polygon class="cls-6" points="52.23 97.01 71.62 91.11 103.5 104.61 137.58 87.11 155.5 95.86 186.47 87.11 123.15 0 52.23 97.01"/><polygon class="cls-7" points="123.15 0 256.83 307.04 346.33 307.04 123.15 0"/></g><g id="Mountain_2" data-name="Mountain 2"><polygon class="cls-5" points="250.33 174.97 328.33 67.05 526.38 307.04 346.33 307.04 250.33 174.97"/><polygon class="cls-6" points="290.49 119.41 307.63 116.28 315.88 126.03 333.4 112.61 343.15 123.75 359.16 112.61 369.21 116.59 328.33 67.05 290.49 119.41"/><polygon class="cls-7" points="328.33 67.05 439.37 307.04 526.38 307.04 328.33 67.05"/></g><g id="Mountain_3" data-name="Mountain 3"><polygon class="cls-5" points="1006.33 106.97 1178.33 307.04 774.98 307.04 1006.33 106.97"/><polygon class="cls-6" points="1037.78 143.55 1018.33 149.42 994.33 143.55 978.16 147.31 968.98 139.27 1006.33 106.97 1037.78 143.55"/><polygon class="cls-7" points="1006.33 106.97 866.66 307.04 774.98 307.04 1006.33 106.97"/></g><g id="Mountain_4" data-name="Mountain 4"><polygon class="cls-5" points="1045.33 152.32 1164.67 29.53 1386 307.04 1178.33 307.04 1045.33 152.32"/><polygon class="cls-6" points="1223.82 103.7 1198 98.11 1178.33 110.61 1157.5 98.11 1134.83 112.61 1118.69 99.57 1097.85 98.28 1164.67 29.53 1223.82 103.7"/><polygon class="cls-7" points="1074.31 167.17 1164.67 29.53 1045.33 152.32 1064.83 175.01 1064.83 175.01 1178.33 307.04 1193.75 306.82 1074.31 167.17"/></g><g id="Mountain_5" data-name="Mountain 5"><polygon class="cls-5" points="1262.6 152.32 1355 81.61 1440 171.12 1440 307.04 1386 307.04 1262.6 152.32"/><polygon class="cls-6" points="1391.55 120.1 1374.83 129.91 1358.33 122.61 1340.69 130.97 1329.48 117.58 1310.21 115.89 1355 81.61 1391.55 120.1"/><polygon class="cls-7" points="1293.49 168.29 1293.49 168.29 1355 81.61 1262.6 152.32 1284.94 180.33 1386 307.04 1401.49 307.04 1293.49 168.29"/></g></g></g></g></g></svg>