<svg xmlns="http://www.w3.org/2000/svg" viewBox="0 0 127.19 310.05"><defs><style>.cls-1{fill:#4d242f;}.cls-2{fill:#b95536;}.cls-3{fill:#f6ad46;}.cls-4{fill:#9ccac0;}.cls-5{fill:#b7e1d9;}.cls-6{fill:#eb584a;}.cls-7{fill:#5ea5c4;}.cls-8{fill:#9e372a;}.cls-9{fill:#5c5056;}.cls-10{fill:#5a8e9e;}.cls-11{fill:#a1372b;}.cls-12{fill:#fff;}.cls-13{fill:#934c84;}.cls-14{fill:#e5b0de;}</style></defs><title>ship</title><g id="Layer_2" data-name="Layer 2"><g id="Fire"><path class="cls-1" d="M39.3,212.34c-.09,30.59,8.41,69.75,11.41,47.09,7,67,17.5,68,25.83,0,1.33,16.5,8.51,4.2,11.42-45.48C89.55,185.48,36.38,189.76,39.3,212.34Z"/><path class="cls-2" d="M42.27,209.46c0,23,6.94,46.46,9.61,32.63,8,45.17,14.83,45.67,23,0,1.5,11.5,7.63,1.37,9.82-31.65C84.77,191.92,42.82,193.5,42.27,209.46Z"/><path class="cls-3" d="M45.87,206.81c0,13.78,4.49,33.95,8,23.95,6.18,33.17,12.18,32,19.18,0,1.67,7.83,8.17-2.83,8.83-22.67C82.78,196.33,46.19,197.52,45.87,206.81Z"/></g><g id="Spaceship"><path class="cls-4" d="M23.68,133.67c2.29,69.58,37.67,66.67,40,66.67V160.77C49,160.6,34.17,151.7,23.68,133.67Z"/><path class="cls-5" d="M63.66,160.77V30c-8.13,0-16.54.21-22.73.63C30.36,56,21.57,94.21,23.68,133.67,34.17,151.7,49,160.6,63.66,160.77Z"/><path class="cls-6" d="M63.66,0c-6.09,0-14.9,11.77-22.73,30.58,6.19-.42,14.59-.61,22.73-.63Z"/><path class="cls-7" d="M63.66,30V160.77c15.13.17,30-9,39.69-27.1C104.85,92.1,97,55.06,87.08,30.58,82.28,30.17,73.15,29.94,63.66,30Z"/><path class="cls-8" d="M87.08,30.58C79.36,11.47,70.39,0,63.66,0V30C73.15,29.94,82.28,30.17,87.08,30.58Z"/><circle class="cls-9" cx="63.45" cy="86" r="22.62"/><path class="cls-10" d="M63.66,160.77v39.56h2.43c8.5-.37,35.52-5.74,37.26-66.67C93.69,151.79,78.79,160.94,63.66,160.77Z"/><path class="cls-6" d="M103.35,133.67c-.71,24.75-5.59,40.33-11.7,50.14,16.7,20.53,19.37,34.36,18,60.2C134,185.51,134,197.67,103.35,133.67Z"/><path class="cls-11" d="M91.65,183.8c-8.94,14.33-20.51,16.31-25.56,16.53H63.66c25.15,0,34.69,25.33,34.69,37.83-.33,9.26,7.83,12.5,11.33,5.83C111,218.17,108.35,204.33,91.65,183.8Z"/><path class="cls-12" d="M115.68,186.3a2.5,2.5,0,0,1-2.26-1.43l-11.33-23.8a2.5,2.5,0,0,1,4.51-2.15l11.33,23.8a2.5,2.5,0,0,1-2.26,3.58Z"/><path class="cls-6" d="M23.68,133.67c1,24.54,5.88,40.33,12,50.14-16.7,20.53-19.37,34.36-18,60.2C-6.64,185.51-7,197.67,23.68,133.67Z"/><path class="cls-11" d="M35.67,183.8c8.94,14.33,20.51,16.31,25.56,16.53h2.43C38.51,200.33,29,225.67,29,238.17c.33,9.26-7.83,12.5-11.33,5.83C16.31,218.17,19,204.33,35.67,183.8Z"/><path class="cls-12" d="M11.64,186.3a2.5,2.5,0,0,0,2.26-1.43l11.33-23.8a2.5,2.5,0,0,0-4.51-2.15L9.38,182.73a2.5,2.5,0,0,0,2.26,3.58Z"/><path class="cls-6" d="M64.09,224.25a8.5,8.5,0,0,1-8.5-8.42l-1-75.43A8.5,8.5,0,0,1,63,131.82h.09a8.5,8.5,0,0,1,8.5,8.42l1,75.43a8.5,8.5,0,0,1-8.41,8.58Z"/><path class="cls-13" d="M63.45,67.9A18.08,18.08,0,0,0,46.11,91.16l21-22.89A18.18,18.18,0,0,0,63.45,67.9Z"/><path class="cls-13" d="M74.66,71.81,50.31,98.42a18.16,18.16,0,0,0,3.17,2.68L77.6,74.74A18.18,18.18,0,0,0,74.66,71.81Z"/><path class="cls-13" d="M57.19,103A18.06,18.06,0,0,0,79.79,78.27Z"/><path class="cls-14" d="M67.07,68.27l-21,22.89a18.05,18.05,0,0,0,4.2,7.26l24.36-26.6A18,18,0,0,0,67.07,68.27Z"/><path class="cls-14" d="M77.6,74.74,53.48,101.1A18,18,0,0,0,57.19,103L79.79,78.27A18.09,18.09,0,0,0,77.6,74.74Z"/></g></g></svg>