<svg xmlns="http://www.w3.org/2000/svg" viewBox="0 0 1579.29 352.13"><defs><style>.cls-1{fill:#c9a786;}.cls-2{fill:#dcb796;}.cls-3{fill:#e5c39f;}</style></defs><title>smoke</title><g id="Layer_2" data-name="Layer 2"><g id="Background"><g id="Smoke"><circle class="cls-1" cx="1323.7" cy="87.56" r="19.84"/><circle class="cls-1" cx="1277.42" cy="39.19" r="5.74"/><circle class="cls-1" cx="1141.9" cy="70.68" r="13.06"/><path class="cls-1" d="M1482.87,80c-2.72,0-5.4.12-8.06.34a64.72,64.72,0,0,0-34.92-29.72A40.37,40.37,0,1,0,1371,67.51a64.46,64.46,0,0,0-16.07,56.15,45,45,0,0,0-59.28-3.1,45.59,45.59,0,0,0,.25-4.74A45.07,45.07,0,0,0,1206,111.3a52.46,52.46,0,0,0-55.3,13.44,52.47,52.47,0,0,0-62.83,12.21,41.1,41.1,0,0,0-64.21,34c0,1.17.06,2.32.16,3.46a19,19,0,1,0,5.69,17.67,41.09,41.09,0,0,0,57.54,13.4,52.37,52.37,0,0,0,39.94,18.7c-.06,1.34-.09,2.69-.09,4A96.43,96.43,0,0,0,1301.92,284a96.44,96.44,0,0,0,186.79-11.35A96.42,96.42,0,0,0,1482.87,80Z"/><circle class="cls-1" cx="998.69" cy="146.24" r="5.74"/><circle class="cls-1" cx="255.59" cy="88.25" r="19.84"/><circle class="cls-1" cx="301.88" cy="39.88" r="5.74"/><circle class="cls-1" cx="437.39" cy="71.37" r="13.06"/><path class="cls-1" d="M568.48,170a18.93,18.93,0,0,0-13,5.12c.1-1.14.16-2.29.16-3.46a41.1,41.1,0,0,0-64.21-34,52.47,52.47,0,0,0-62.83-12.21A52.46,52.46,0,0,0,373.34,112a45.07,45.07,0,0,0-89.92,4.51,45.59,45.59,0,0,0,.25,4.74,45,45,0,0,0-59.28,3.1A64.46,64.46,0,0,0,208.32,68.2a40.35,40.35,0,1,0-68.92-16.9A64.72,64.72,0,0,0,104.48,81c-2.66-.22-5.35-.34-8.06-.34a96.42,96.42,0,0,0-5.84,192.66A96.44,96.44,0,0,0,277.37,284.7a96.43,96.43,0,0,0,151.9,6.9,56.61,56.61,0,0,0,80.88-79.13,40.74,40.74,0,0,0,39.68-19.71A19,19,0,1,0,568.48,170Z"/><circle class="cls-1" cx="580.6" cy="146.93" r="5.74"/><path class="cls-2" d="M1240,204.29a26.38,26.38,0,0,0-21.31,10.81,46.29,46.29,0,0,0-41.69-8,65.31,65.31,0,0,0-109.56,1.91,63.59,63.59,0,0,0-85.42-16.23,65.31,65.31,0,0,0-115.4-6.9,57.29,57.29,0,0,0-98.16,12.19,36.14,36.14,0,0,0-8.77-.13,75.64,75.64,0,0,0-138.2-12.28,64.58,64.58,0,0,0-101.44,27.16,47.65,47.65,0,0,0-71.45,26.76c-1-.09-1.92-.14-2.89-.14A29.54,29.54,0,1,0,465.55,291,47.65,47.65,0,0,0,533.68,280a64.53,64.53,0,0,0,99.11-6.46,75.59,75.59,0,0,0,115.48-6,36.54,36.54,0,0,0,36-3,57.27,57.27,0,0,0,83.14-9.91,65.29,65.29,0,0,0,91.38,19.49,63.63,63.63,0,0,0,110.73,7.1,65.28,65.28,0,0,0,97.6,10.51,46.31,46.31,0,0,0,69.13-34.86,26.42,26.42,0,1,0,3.84-52.56Z"/><path class="cls-3" d="M1103,248.28a19.82,19.82,0,0,0-16,8.08,36,36,0,0,0-29.5-4.83A47.11,47.11,0,0,0,990,228.36a51.29,51.29,0,0,0-61.61-30.71,67.06,67.06,0,0,0-88,4.12,60.47,60.47,0,0,0-69.54,8.71,52.54,52.54,0,0,0-60.44,12.21,45.66,45.66,0,0,0-69.86,34.4A21.13,21.13,0,1,0,648.93,288a45.65,45.65,0,0,0,65,9.43,52.54,52.54,0,0,0,61.77,6.15,60.42,60.42,0,0,0,71.1.63,67.08,67.08,0,0,0,83.76-3.13,47.1,47.1,0,0,0,66.89,12.15,47.15,47.15,0,0,0,41.5-4.37A36,36,0,0,0,1103,288h0a19.87,19.87,0,0,0,0-39.73Z"/></g></g></g></svg>