<svg xmlns="http://www.w3.org/2000/svg" xmlns:xlink="http://www.w3.org/1999/xlink" viewBox="0 0 1440 709"><defs><style>.cls-1{fill:url(#linear-gradient);}.cls-2{fill:#f2edcc;}</style><linearGradient id="linear-gradient" x1="386.5" y1="-223.14" x2="1053.5" y2="932.14" gradientUnits="userSpaceOnUse"><stop offset="0" stop-color="#0f1120"/><stop offset="1" stop-color="#1c2038"/></linearGradient></defs><title>titlebg</title><g id="Layer_2" data-name="Layer 2"><g id="Title"><rect class="cls-1" width="1440" height="709"/><polygon class="cls-2" points="111.2 119.93 98.94 121.03 92.89 131.76 88.05 120.43 75.98 117.99 85.26 109.89 83.85 97.66 94.42 103.98 105.62 98.86 102.87 110.86 111.2 119.93"/><polygon class="cls-2" points="474.02 80.14 462.15 81.69 456.7 92.35 451.55 81.54 439.73 79.65 448.42 71.42 446.56 59.59 457.08 65.31 467.76 59.89 465.57 71.66 474.02 80.14"/><polygon class="cls-2" points="321.96 461.9 327.39 450.38 320.98 439.37 333.62 440.98 342.1 431.48 344.48 443.99 356.13 449.12 344.97 455.25 343.69 467.92 334.41 459.2 321.96 461.9"/><polygon class="cls-2" points="76.82 642.74 80.78 632.85 74.88 623.99 85.51 624.7 92.11 616.34 94.72 626.67 104.71 630.37 95.69 636.04 95.26 646.69 87.08 639.87 76.82 642.74"/><polygon class="cls-2" points="793.55 669.64 782.75 666.83 774.32 674.12 773.66 662.99 764.11 657.22 774.5 653.15 777.03 642.29 784.11 650.91 795.23 649.97 789.22 659.36 793.55 669.64"/><polygon class="cls-2" points="1056.95 555.18 1048.53 549.1 1038.75 552.59 1041.93 542.71 1035.59 534.48 1045.98 534.45 1051.84 525.88 1055.08 535.75 1065.04 538.67 1056.65 544.8 1056.95 555.18"/><polygon class="cls-2" points="1383.84 324.76 1374.77 320.77 1366.34 325.98 1367.34 316.12 1359.78 309.71 1369.46 307.61 1373.22 298.44 1378.21 307 1388.09 307.74 1381.49 315.13 1383.84 324.76"/><polygon class="cls-2" points="883.79 253.31 871.44 251.52 862.98 260.67 860.86 248.38 849.54 243.16 860.57 237.35 862.04 224.97 870.98 233.67 883.21 231.24 877.7 242.43 883.79 253.31"/><polygon class="cls-2" points="1200.19 107.62 1189.04 108.93 1183.79 118.86 1179.1 108.66 1168.04 106.74 1176.29 99.12 1174.69 88.01 1184.48 93.5 1194.56 88.55 1192.36 99.56 1200.19 107.62"/></g></g></svg>