<svg xmlns="http://www.w3.org/2000/svg" viewBox="0 0 341.63 385.97"><defs><style>.cls-1{fill:#999;}.cls-2{fill:#737373;}</style></defs><title>tower</title><g id="Layer_2" data-name="Layer 2"><g id="Background"><g id="Tower"><path class="cls-1" d="M110.36,0l-5,5h0L84.07,26.29,67.85,42.51l-8.6,8.6h0l-3.38,3.38H54.25V219.23l-3.15,3.15h0L29.82,243.67,13.6,259.89,5,268.49H5l-3.26,3.26H0V385.89H113.89V0ZM108.9,8.53V51.11L87.6,29.82ZM59.25,214.43V171.85l21.29,21.29Zm.39,11.91,20.9,20.9-20.9,20.9Zm0,54.34,20.9,20.9-20.9,20.9Zm3.3,45.57,21.13-21.13,21.13,21.13Zm42.27,5.15L84.07,352.54,62.94,331.4ZM63.08,277.06h42l-21,21Zm0-5.29,21-21,21,21ZM63.32,223h41.51L84.07,243.71Zm0-5.53,20.75-20.75,20.76,20.75Zm-.38-49h42.27L84.07,189.61Zm-3.69-8.53V117.36l21.29,21.29Zm3.69,3.37,21.13-21.13,21.13,21.13Zm.14-49.19h42l-21,21Zm0-5.29,21-21,21,21Zm-3.83-3.24V63L80.54,84.31Zm-5,120.7v41.81l-20.9-20.9ZM29.82,250.73l21,21H8.8Zm21,26.29-21,21-21-21ZM8.67,326.25,29.82,305.1,51,326.25ZM51,331.39,29.82,352.54,8.67,331.39ZM5,322.86V280.28l21.29,21.29Zm0,11.92,21.29,21.29L5,377.36Zm3.53,46.11L29.82,359.6l21.29,21.29ZM54.25,377l-20.9-20.9,20.9-20.9Zm0-54.5-20.9-20.9,20.9-20.9Zm5.38,12.69,20.9,20.9L59.64,377Zm3.14,45.73L84.07,359.6l21.29,21.29Zm46.11-3.53L87.6,356.07l21.29-21.29Zm0-54.48L87.6,301.59,108.9,280.3Zm0-54.34L87.6,247.24,108.9,226Zm0-54.1L87.6,193.14l21.29-21.29Zm0-54.48L87.6,138.65l21.29-21.29Zm0-54.34L87.6,84.31,108.9,63ZM84.07,80.78,62.93,59.64h42.28ZM62.93,54.49,84.07,33.35l21.14,21.14Z"/><g id="Pad"><path class="cls-1" d="M320.13,343H135.59a21.5,21.5,0,0,0-21.5,21.5H341.63A21.5,21.5,0,0,0,320.13,343Z"/><path class="cls-2" d="M135.59,386H320.13a21.5,21.5,0,0,0,21.5-21.5H114.09A21.5,21.5,0,0,0,135.59,386Z"/></g></g></g></g></svg>